<svg xmlns="http://www.w3.org/2000/svg" xmlns:xlink="http://www.w3.org/1999/xlink" viewBox="0 0 340.06 338.75"><defs><style>.cls-1{fill:url(#Degradado_sin_nombre_178);}.cls-2{fill:url(#Degradado_sin_nombre_178-2);}.cls-3{fill:url(#Degradado_sin_nombre_178-3);}</style><linearGradient id="Degradado_sin_nombre_178" x1="46.43" y1="153.03" x2="340.06" y2="153.03" gradientUnits="userSpaceOnUse"><stop offset="0"/><stop offset="0.51" stop-color="#333"/><stop offset="0.72" stop-color="#353535"/><stop offset="0.79" stop-color="#3c3c3c"/><stop offset="0.85" stop-color="#474747"/><stop offset="0.89" stop-color="#585858"/><stop offset="0.93" stop-color="#6e6e6e"/><stop offset="0.96" stop-color="#8a8a8a"/><stop offset="0.99" stop-color="#a9a9a9"/><stop offset="1" stop-color="#b3b3b3"/></linearGradient><linearGradient id="Degradado_sin_nombre_178-2" x1="0.12" y1="203.52" x2="277.93" y2="203.52" xlink:href="#Degradado_sin_nombre_178"/><linearGradient id="Degradado_sin_nombre_178-3" x1="0" y1="137.66" x2="225.62" y2="137.66" xlink:href="#Degradado_sin_nombre_178"/></defs><title>ejemplohero</title><g id="Capa_2" data-name="Capa 2"><g id="index.html"><polyline class="cls-1" points="170.03 56.45 46.43 197.5 88.28 207.31 170.03 105.01 210.57 54.28 302.78 149.76 273.35 245.23 287.74 298.86 340.06 146.49 213.19 7.19 170.03 56.45"/><polygon class="cls-2" points="213.04 68.29 188.34 99.4 238.04 285.13 141.25 308.67 58.19 251.1 0.12 240.35 128.83 338.75 277.93 306.71 213.04 68.29"/><polygon class="cls-3" points="225.62 275.32 215.2 240.35 37.28 209.27 63.43 73.9 157.6 44.47 192.92 0 36.62 53.63 0 230.19 225.62 275.32"/></g></g></svg>