<svg xmlns="http://www.w3.org/2000/svg" viewBox="0 0 1152.68 561"><title>map</title><g id="Capa_2" data-name="Capa 2"><g id="Final_Background" data-name="Final Background"><path d="M62.39,200.52c.8-3.2,3.2-6.8-4.61-7.24-6.65-.38-7.55,2.34-7.22,6.17.36,4.16.51,8.32.76,12.49a4.68,4.68,0,0,1-5.65.1c2.14-4.67.88-9.47,1-14.21.1-3.16-2.05-4.49-6.35-4.5-4.54,0-6.23,1.69-5.91,4.72,1,9.14-2.45,18.47,2.21,27.45a3.15,3.15,0,0,1-1.31,4.58,5.76,5.76,0,0,1-5.36.23c-2.29-1-3.09-2.7-2.06-4.34,5.07-8.08,1.47-16.61,2.72-24.87,1.1-7.21-3.46-9-12.18-7.35-3.29.52-3.72-1.15-4.11-2.85,3.82-3.92-.78-7.83-.07-11.76a5.38,5.38,0,0,1,3.13-2.65c14.2-3,29,0,41.73-2.29-4.12-.55-10.72,1-14.79-3.53A4.26,4.26,0,0,1,44,167c3.51-5.27,10.73-3.1,14.69-4.08-12.63,0-26.77-1.56-41-1.34-1.83,0-3.63,0-5.46,0-4.91.57-9.07-.34-12.21-3.27V155q7.2-4.22,0-8.42V143.2c3.42-3.33,8.23-3.68,13.36-3.31,2.16,0,4.31,0,6.47-.06,13.29,1,26.9-2.89,40,1.43a4.58,4.58,0,0,1,2.34,3.81c-.8,4.35-5,5.08-10,4.89a93.91,93.91,0,0,0-13.68.64,67.27,67.27,0,0,1,21.35.48c5.14,1,8.59.37,6.15-4.44a5.25,5.25,0,0,1,.16-3.6c2.36-3.41,1.44-5.32-4.3-4.69a101.61,101.61,0,0,1-16.82.3c-4.18-.24-8.33-.66-10.22-4.07a4.17,4.17,0,0,1,.3-3.65c6.83-6,16.43-2.28,23.09-3.75-12.71-.42-27,.29-41.06-2.27C15,124,14,122.56,13.92,120.77a5.57,5.57,0,0,1,2.4-3.68c7.87-6.17,6.57-10.34-4.52-13.06C7.41,103,2.93,102.32,0,99.4V96c9-5.19,16.58-5.41,24.46-.11,6.43,4.32,13.62,8.28,16.26,14.93.91,2.29,3.5,3.65,6.71,4.17,2.62.43,5.65,1.06,7.55-.7s.45-4-1.39-5.34C38.57,98.47,27.94,84.2,6.3,79.36,3.55,78.75,2,77.12,0,75.81V72.44C12.19,71,21,74.68,29,81.27c9.93,8.14,21.14,15.46,31.69,23.21,2.13,1.56,5.31,3.4,5.4,5.19.35,6.42,1.07,11.56,13,10.39,3.81-.37,3.86,2.92,3.86,5.16,0,16.82-.1,33.65.13,50.47.06,4.56-2.91,5.94-8.42,5.78-4.7-.13-8.1.4-7.89,4.95s4,4.26,7.82,4c6.69-.5,10.53,2.51,14.67,5.51q29,21,58.15,41.88c.36,1.5.07,2.47-2.45,1.61q-28.64-20.62-57.3-41.22c-2.94-2.11-5.39-4.6-10.26-4.88-7.3-.42-12.37.39-10.2,7A4.4,4.4,0,0,1,62.39,200.52Z"/><path d="M1000.91,83.92c5.29,0,7.75,1.89,7,5.78-1,5.43,2.85,6.66,9.46,6.41,11.44-.43,26.2,2.64,33.48-1.49,7.78-4.41,2.53-15.73,2.44-24-.07-6.41,1.7-11.58,9-15.29,20.2-10.27,27.74-24.24,23.82-41.91-1-4.38-.26-8.95-.31-13.44h4.61c-2.17,10.3-.91,20.67-.84,31,0,5.47-1.63,9.88-7.65,13.24-.9.51-1.52,1.3-2.46,1.75-22.18,10.57-25.62,26.23-23,43.85.66,4.48,2,6.45,8.7,6.35,20.68-.3,41.37-.21,62.06-.27,2.34.74,3.64,1.81,2.29,3.75-22.15-2.16-44.42-.33-66.61-1-4.33-.13-6.52,1.46-6.17,4.58.57,5.2-2.13,10.68,2.47,15.54,1.82,1.92,1.47,3.72-1,5.17a5.9,5.9,0,0,1-5.38.23c-2.74-1.23-3.39-3.42-1.67-5.07,4-3.85,1.55-8.14,2.45-12.17,1.55-7-3.24-8.71-11.75-8.23-6.86.39-13.81.32-20.7.08-8-.29-14.8-.15-13.39,8,.63,3.69-3.76,3.82-7.15,3.66-7.22-.33-9.61,2.14-8.84,7.07,1,6.5-9.38,8.2-11,12.91-2.79,8.21-10.52,5.55-17.16,5.6-14.58.12-29.16.2-43.73,0-6.84-.1-9.55,1.59-9.28,6.8.49,9.24.14,18.5.17,27.75,0,1.39.16,2.78.41,6.77,10.82-11.24,30.71-14.82,28.94-30.4-.1-1.07-.16-2.24,2-2,1.42.15,1.13,1.15,1.1,1.92,1.32,7.27-2.7,12.47-9.93,17.58C907.09,183,881.58,202,855.82,220.82c-1.9,1.39-3.68,2.88-5.68,4.18-5.11,3.31-6.11,8.54-2.62,11.26,4.13,3.22,11.36,2.42,16.35-1.21,22.85-16.61,45.59-33.29,68.5-49.85,2.66-1.92,3.24-4.3,4.65-6.54,1-1.63,3.31-2.22,5.85-1.87,2.12.3,3.75,1.45,3.79,2.75a4.17,4.17,0,0,1-2.39,3.47c-18.6,6.45-29.26,19.23-43.63,29-9.39,15.11-23.73,26.73-45,33.05a12.15,12.15,0,0,0-7.49,5.71,6.44,6.44,0,0,1-7.83.06c-2.06-2.75-1.42-5.81-1.89-8.75-.12-1.67-.36-3.34-.34-5-1.27-8.44,3.06-14.88,11.6-20.68,14.3-9.69,26.87-20.8,44.29-27.82,10.54-4.79,16-11.12,14-20.73-2.3-11.44,3.1-23.22-3.39-34.69-2-3.52,3.89-3.67,7.85-3.64,18,.1,36-.1,54,.23,9.08.17,15.29-2.92,20.24-7.83,5.37-5.34,2.09-10.63-6.67-11.42-2.21-.2-4.35-.79-6.52-1.2a6.18,6.18,0,0,1,2.44-3.08c2.35-.93,4.84-2,7.39-2.11,12.24-.49,16-5.89,15.59-13.84.15-1.54-.55-3.09-.09-4.64A3.78,3.78,0,0,1,1000.91,83.92Z"/><path d="M989.29,249.71q20.82-15,41.66-29.89c2.44-1.74,5-4.44,7.82-4.63,9.39-.66,17.24-1.7,15.45-10.68,11.08-1.16,16.7-5.87,18.48-13.92.19-.89,8-.37,11.63-1.5,3.89-1.19-7.91-3.21-.16-5.34,1-.28,1.41-2.68,2.11-2.68,14.35,0,15.15-9.95,21.64-15.68,2.21,2.67,4.51,2.55,7.2.29,4.26-3.58,9.1-6.76,13.77-10.05,8.29-5.85,14.5-6,23.79-.64v3.37c-2.72,2.5-6.45,3.46-10.56,4.39-12.37,2.8-13.56,6.19-5.48,13.83,1.45,1.37,2.21,2.88,1.76,4.64a5.23,5.23,0,0,1-3.05,2.77c-8,2.52-16.46,2-24.84,2.14-4.81.1-10.14-.47-13,3.74,11.45-1.42,13.75-.26,14.41,7.92.68,8.36.11,16.75.36,26,.35-9.86-.52-18.88.54-27.85,1-8.2,6.12-10.08,17.13-6.76,2.68,2.49.6,4.9-.21,7.32-2.94,11.62-.79,23.36-1.47,35s-7.54,16.59-22.51,12.49c-10.7-2.93-11.71.56-13.4,5.89-1.64,1.39-3.31,2.68-5.89.95,2.43-2.92-9.18-4.42-1.51-8.09.78-.38-1.49-1.53-3.07-1.57-2.29-.07-4.63.07-6.87-.21-10.13-1.28-2.15-8.52-7-11.5-4.26-2.63-14.31,2.68-14.61-5.74-.07-2.21,1.88-5.65-3.07-6.26-5.13-.64-10.54-1.28-15,2.13-10.78,8.28-21.78,16.41-32.69,24.6-3.27,3-2.58,8.74-10.83,8.18C990.23,251.94,988.9,251.28,989.29,249.71Z"/><path d="M700.58,471.63c-.25,10.87-.73,21.75-.63,32.62,0,5.26-1.17,8.57-10,8-8.08-.51-7.72,3.19-4.93,7,1.53,2.1,3.22,3.94.15,5.9a6.15,6.15,0,0,1-6.34.24c-3-1.76-2.27-3.91-.3-5.94s2.39-4.56.55-6.27-5.76-1.27-8.67-.81c-4.14.65-3,3.41-3.31,5.5-1,6.13,4.33,12.7,2.36,17.61-2.72,6.74-1.7,13.15-2.6,19.67-.26,1.93-.43,3.88-.64,5.82h-2.31c-1-8.74.82-17.41-2.19-26.39-1.49-4.43,2.4-11.08,2.16-16.88-.09-2,1.07-4.84-3.29-5.38-2.91-.35-6.45-1.08-8.64.87s-1.58,4.19.61,6.12,3.12,3.9.1,5.83a6.14,6.14,0,0,1-6.31.17c-1.94-1.11-2.51-2.86-1.15-4.5,6.35-7.66.95-9.17-8.41-8.77-1.92.08-3.8-.25-4.71-1.77a7.24,7.24,0,0,1,3.41-3.5c6.9-3.11,14.13-1.16,21.3-.82,36.32,1.72,33.91-1.8,33.73-22.3,0-4.76.07-9.52-.09-14.28-.08-2.53-.32-5.06-2.13-7.32a8.6,8.6,0,0,0-7.51-3.17c-3,.13-5.09,1.29-5.92,3.37-1,2.42.22,4.67,3,5.89,5.38,2.36,10.43,4.75,11.51,9.75,1.52,7.1-.23,14.14-2.89,20.74-3,7.47-13.06,5.68-20.68,5.61-7.94-.07-17.75,2.14-22.21-5.37-5.25-8.83-.59-23.69,9.21-30.45,4.64-3.2,5.59-7.27,5.68-11.5.15-6.89,5.07-10.11,14.08-10.78a110.86,110.86,0,0,1,14.91-.3c6.41.38,15.16-.08,16,5.73C704.4,458.14,710.46,465.73,700.58,471.63Z"/><path d="M1122.76,193.81l6.75-3.1c-.54-3.53.76-6.53,4.73-8.77l2.79-2.21c8.9.65,9.08,8.16,15.65,10.64v3.37q-7.2,4.22,0,8.42v3.37q-7.2,4.22,0,8.42v3.37q-7.2,4.22,0,8.43v3.37c-6,3.72-8.25,8.62-8.24,14.19,0,5.92-1.51,11.09-10.17,13.7-5.84,1.76-5.67,7.19-10.23,9.85-4-2.06-6.44-4.66-6-8.47.3-2.89.29-5.68-5.53-5.76-5.43-.08-5.82,2.25-6.36,5.35-1.69,9.65-15,18.09-28,18.21-6.12.06-12.24.29-18.36.42-2,.05-4-.23-4-2.07s2.21-2,4.11-2c5.74.12,11.52.07,17.21.52,7.62.61,13-1.64,18.09-5.59,4.47-3.44,8.19-6.72,6.64-11.72-1.7-5.53-8.38-2.14-12.39-3.57a25.53,25.53,0,0,1-2.83-1.38l3.85-1.38c2-4.1,7-3.8,11.42-4.09,5.32-.35,10.68-.1,16-.4,6.21-.34,10.09-2.59,10.35-7.28a313.58,313.58,0,0,0-.05-36.79C1127.93,197.91,1125.78,195.68,1122.76,193.81Z"/><path d="M46.11,561c.26-10.89.77-21.79.66-32.68-.05-5.08,2.54-7.17,9.44-6.81,4.57.23,9.19.08,13.78,0s9.51.71,9.67-4.62-4.61-4.74-9.27-4.77c-12.63-.08-25.25-.24-37.88-.36-.43-1.55.69-2.52,2.31-3.3,6.79-2.56,14.17-2,21.42-2.15,14.78-.22,15.64-.7,19.44-11.2a12.28,12.28,0,0,1,2.87-4.54,6.38,6.38,0,0,1,2.93-1c5.77,2.11,6.64,6.38,8,10.42,4.16-.67,3.53-3.63,6.92-4.88-5.3-1.39-10.21-1.43-12.92-4.57-2.25-3.13.75-3.84,3.86-4.36,3.59-.59,7.8.63,10.7-2,.38-.24.75-.49,1.12-.74,1.14.11,2.27.31,3.4.32,17,.21,19.24,2.72,12.54,14-1.38,2.31-3.86,2.71-6.49,2.44-9-.94-9.65,2.8-9.56,8,.29,17.59.11,35.19.11,52.78h-2.3c-.28-13.41-.38-26.83-.94-40.24-.14-3.35,3-8.31-6.24-8.67-8.51-.33-6.58,4-6.67,7.34-.13,4.62-4.42,4.35-8.75,4.51-23.65.86-23.66.88-23.64,18.59,0,6.16.08,12.31.13,18.47Z"/><path d="M117.56,276.36c-7.15-.73-10.66-5.11-15.23-8.32-3.15-2.21-6.18-4.2-10.86-3.72-29.35,3-58.7,2.6-88,0A24.62,24.62,0,0,0,0,264.5v-3.37c22.76-2.52,45.68-1.55,68.55-1.75,15.93-.15,31.26.71,41.92,11.15,1.94,1.89,4.78,2.73,8.11,2.59,12.63-.53,25.33.95,37.94-.59,2.72-3,6.22-3.9,10.47-1.82,2.36,1.14,3.49,2.94,2.47,5-1.87,3.77-6,3.49-10.24,2.74-5.61-3.36-12.08-2.48-18.47-2C133,282.07,125.27,280.51,117.56,276.36Z"/><path d="M124.26,28.64c6-3.45,4.45-8.35,4.55-12.92.12-5.24.2-10.48.29-15.72h2.31C130,22.12,137.92,44,135,66.14c-.37,2.79,2.06,6.33-3.28,8.09a2.07,2.07,0,0,1-3.19.14c-5.89-1.42-3.64-5.09-3.71-7.86C124.42,53.89,124.4,41.26,124.26,28.64Z"/><path d="M1122.71,0c-.11.83-.29,1.66-.32,2.49-1,22.72-1,22.72,30.29,22.78v3.37c-30.42-1.9-30.42-1.9-30.42,20.25,0,6.16-.35,12.34.11,18.48.43,5.67-2.19,8.08-10.38,8-7.46-.07-15.29-1.41-22.44,1.86a5.19,5.19,0,0,1-6-1.36,2.86,2.86,0,0,1-.12-4c1.39-1.66,3.55-1.86,6-1.59,28.72,3.21,28.73,3.21,28.72-17.4q0-26.44-.08-52.91Z"/><path d="M843.58,39.2Q842.52,19.6,841.46,0h4.61c6.22,3.27,5.46,8.17,5.62,12.86.15,4.12-.26,8.26.21,11.34,2.84-7.38-1.44-16.92,8-24.2h2.31c7.8,4,4.44,10.58,6.74,17.26C871.83,10.65,868.07,4,876,0h2.3c5.15,2.8,5.61,6.87,5.59,11.06,0,5.89,1.21,11.48,7.27,15.89,1.58,1.39,2.77,2.87,2.12,4.78a4.87,4.87,0,0,1-2.27,1.91c-3.13,1.14-5.78.17-8.67-.78-4.83-1.58-9.44-1.31-13.17,1.87-2.18,1.85-2.74,3.72-1.23,6.07,2.43,3.78,6.33,5,11.75,4.32,2.22-.27,4.53-.66,6.61.46a4.21,4.21,0,0,1,1.72,2c-9.28,2.75-10.23,8.15-9.9,14.66.26,5,3,10.69-3.77,14.87-3.3-.35-5.23-1.71-5.77-4.12,7-15.69-6.51-23.95-21.55-31.66C845.83,40.73,844.82,39.85,843.58,39.2Z"/><path d="M825.32,561c.26-10.35.36-20.71.85-31,.24-5-3.24-6-9.22-6-23.53.26-19-1.33-19.31,13.48-.15,7.84,0,15.69,0,23.54h-2.31a138,138,0,0,1-.09-38.88c12.73.68,16.12-4,14.6-12.57-2-11,2.69-22.36-2.89-33.28-.84-1.65.15-3.45,2.65-4.12a8.32,8.32,0,0,1,4.32.07c2.41.79,3.06,2.52,2.33,4.26-5.26,12.63-1.21,25.57-2.54,38.32-.44,4.31,1,7.24,8,6.77,6.75-.46,8.48,2.14,8.37,6.61-.27,10.94-.11,21.88-.13,32.82Z"/><path d="M1152.68,535.73c-15.84,1.11-31.92-2-47.71,2-4.76,1.21-6.38-1.84-5.07-5.31,4.25-11.26,5.44-22-9.71-29.95-3.85-2-4.41-4.95-4.34-8.19.16-7.56-.48-15.15.19-22.67.74-8.28-4.82-13.13-14.46-15.94-3.36-1-5.41-2-5-4.67.23-1.47,1.6-2.55,3.72-2.78,3.73-.42,5.76.92,6.43,3.53.15.55,0,1.38.4,1.62,18.14,10.21,11.59,24.77,12.26,37.94.26,5.08,1.27,9.4,7.14,12.49,7.94,4.17,10,9.79,9.67,16.8-.67,12.78-.19,12.72,17.82,12.84,9.55.07,19.09.42,28.64.64Z"/><path d="M553.29,0c0,10.35.27,20.7,0,31-.11,4.43.54,8.43,5.91,11.06,9.84,4.82,11.23,11.72,10.84,19.73-.16,3.35-4.46,8.47,3.82,10.54a4.65,4.65,0,0,1,4.91,0c7.36-.46,4.25-4.76,4-7.07-1.08-10,.45-18.88,13.05-25,4.13-2,3.45-5.32,3.45-8.4,0-10.65.07-21.29.11-31.94h2.31c.1,7.55-.22,15.11.4,22.64.84,10.06.12,19.37-12.77,25.89-3.51,1.77-5.12,20.07-2.88,22.53,2.76,3,8,.25,12.43,3.32H555.43c9.7-.95,13-4.82,11.54-11.86-1.16-5.59,2-11.77-6.06-16.14-3.93-2.14-7-5.14-10.44-7.76C548.21,27.27,552,15.68,548,4.37c-.58-1.64,1.41-3.12,3-4.37Z"/><path d="M991.31,0c.11,13.19.78,26.39.09,39.55-.3,5.48,4.38,10,1.44,16.5A34.64,34.64,0,0,1,981,70.5C972,77.06,963.48,84,953.86,90c-8.72,5.43-11.69,11.57-11.08,19.81.48,6.51.46,11.8,12.8,10.8-9.7,2.41-18.93,2.19-28.93.11,15,1.26,14.65-5.53,13.5-12.53-1.29-7.83,2-13.77,10.44-19.11,11.59-7.33,21.94-15.7,32.88-23.58,3-2.19,5.77-4.25,5.46-7.85-1.6-19.2.85-38.41.07-57.61Z"/><path d="M419.58,561c.15-14.52.45-29,.37-43.57,0-4.44.75-8.41,6-11.1,14-7.15,11.21-17.35,9-27.23-.56-2.47-2.83-4.68.58-6.73a5.52,5.52,0,0,1,5.36-.11c3.49,2,2.08,4.18.65,6.68a10.25,10.25,0,0,0-1,6.55c1.53,9.23-1.92,16.52-12,22.84-8.53,5.32-5.75,11.88,4.36,13.41a2.52,2.52,0,0,1,1.81,1.7c-2.53,3.44-2.92,6.9-.21,10.41a4.27,4.27,0,0,1-.33,2.25c-4.51,3.61-1.14,6.69,1.27,9.84a4.09,4.09,0,0,1-.4,2.32c-5.55,3.36-4.43,9.74-10.77,12.74Z"/><path d="M327.07,96.08l.81,3.42c-7.32-1.21-4.95-5.6-5-8.83-.19-30.22-.14-60.45-.16-90.67h4.61c-1.78,29.23-.9,58.47-.32,87.7C331,90.48,330,93.28,327.07,96.08Z"/><path d="M502.57,561c-.16-11.19-.11-22.39-.56-33.57-.18-4.38,2-6,7.9-5.85,3.27.1,7.34.34,8.07-3.17.4-1.9,1.11-4.25-1.26-5.53-3.65-2-5.64.9-8.54,1.85-9.25,3-12.29-.84-12.09-7.09,4.4-1.73,6.7-4.16,6-8.06-1.3-7.55,2.79-15.53-3.85-22.72-1.16-1.26-1.24-4.17,2.16-4.9a12.72,12.72,0,0,1,6.56.32,2.83,2.83,0,0,1,1.26,4.53c-6.55,7.53-2.22,15.78-3.35,23.65-.71,4.88,3.37,8.5,9,9,9.39.85,6.58,5.41,7,9.21.58,5-4,5.39-8.93,5.09-6.64-.41-7.38,2.37-7.3,6.22.21,10.33.12,20.67.14,31Z"/><path d="M0,355.47l129.31.28a3.15,3.15,0,0,1,2.27,1.5c-4,2.51-8.78,1.53-13.23,1.54q-59.17.12-118.35,0Z"/><path d="M717,0c-.31,1.66-1.31,3.43-.83,5,6.67,21-12.89,32.21-30.54,44.2a13.54,13.54,0,0,1-9.44,2.4c-11.27-1.45-16.53,4.67-22.67,9.46-3.88,3-3.38,6.67-.31,10.07,2,2.18,2.2,4.17-1,5.82a5.86,5.86,0,0,1-5.39,0c-3.29-1.65-1.87-3.56-1-5.88,2.31-6.42,4.29-12.56,12.16-17.15,5-2.93,9.36-5.67,16.13-5,5.51.59,9.3-1.42,13.09-4.08,25.74-18.06,25.78-18,25.22-44.8Z"/><path d="M1152.68,134.77c-9.06-.15-18.13-.25-27.19-.47a13.74,13.74,0,0,0-9,2.89q-11.84,8.92-23.73,17.8c-4.3,2.81-9.48,3-14.92,2.95-8-.13-16,.48-23.92-.12-11.46-.88-19.91,1.93-25.9,9-2.12.06-3.19-.46-2.25-2.13,7.28-8,17.39-10.69,30.41-9.76,18.07,1.29,35.84,1.57,47.64-11.82,8.91-10.11,22.2-13.82,38.55-11.72,3.34.42,6.88,0,10.32,0Z"/><path d="M230.43,530.79c5.49,4.26-2.08,7.39-1.85,11.31.37,6.29-.19,12.6-.35,18.9h-2.3c-1.61-8.71-1.75-17.76-2.23-26.27-.45-8.2,1.21-17.47,1.92-26.25.22-2.66,2.45-6.83-3.34-7.85-5.06-.88-10.52-1.15-14.77,2.5-3.18,2.74-7.2,5-10.84,7.41-1.35.42-1.81,1.66-3.31,1.95l-29.48-.09c-1.3-.68-1.34-1.41-.12-2.16,5.31-.17,10.62-.43,15.93-.48,23.5-.18,37.28-14.4,29.73-30.56-1.76-3.75-5.27-2.05-8.37-2-1.85-1.39-1.83-2.8-.08-4.23,9.13.56,13.47,3.75,11.65,10.76-.55,2.15.2,4.47-.14,6.67-1,6.55,2.7,8.8,11.27,6.88,10-.29,10.66,5.1,8.41,9.48C228,514.84,231.05,522.81,230.43,530.79Z"/><path d="M1053.24,387.26a6.18,6.18,0,0,1,.11-1.67c2.09-5.82-5.22-15.43,4.49-17,12.61-2.09,28.33-5,39,5.43,1.13,1.1,2.93,1.86,4,3,12.76,13.73,30.84,16.73,51.87,13.87v3.37c-23.62,2.88-42.63-2.54-56.27-17.07-9.08-9.68-22.51-6-34.61-6.35-4.21-.11-4.46,2.63-4.38,4.88.13,3.9.6,7.79.93,11.68A4.32,4.32,0,0,1,1053.24,387.26Z"/><path d="M196,0c.06,21.84.34,43.68,0,65.51-.07,5.42,1.14,9.95,7.48,13.1,21.87,10.88,28.31,26,25.54,44.76-1.28,8.75-4.14,18.55,5,26.65-7.21-1.14-8.18-5.1-8.16-9.56,0-11.5-.26-23,.14-34.49.19-5.38-.85-10-7.3-13.23-21.79-10.91-28.15-25.93-25.59-44.82,2.14-15.83.5-31.94.54-47.92Z"/><path d="M440.32,0c-4.42,18.25,2.85,33,24,43.86,4.61,2.36,8.37,5.61,12.52,8.45A29.16,29.16,0,0,1,491,71.38c.53,2.14.82,4-1.15,5.39a6.43,6.43,0,0,1-6.43.2c-2.43-1.41-1.53-3.46-.44-5.36,3.38-5.89,1.15-10.54-5.19-14.88-10.34-7.09-19.67-15-30.31-21.8C438.8,29.41,435.56,23.2,436.56,15c.61-4.95,1.1-10.08-.85-15Z"/><path d="M518.71,561c-1.73-9.59-.82-18.43,11.79-24.39,4-1.88,4.15-5.05,4.08-8.27-.17-8.41-.47-16.83,0-25.23.56-9.5.27-18.47-12.38-24.36-4.5-2.1-3.62-5.78-4.08-9.13-1.32-9.57,3.54-19.53-3.39-28.77-1.26-1.7,0-3.32,2-4.36a6,6,0,0,1,5.4,0c2,1,3.25,2.51,2,4.32-6.64,9.88-1.62,20.38-3.11,30.53-.74,5.05,5,7.38,9,10.08,5.25,3.48,7.56,7.24,7.19,12.51a162.09,162.09,0,0,0,0,25.22c.87,9.94-.64,18.53-12.74,25.2-7.45,4.1-2.35,11.07-3.57,16.68Z"/><path d="M228.23,0c.15,9.49.61,19,.32,28.48-.18,5.91,2.34,8.88,11.07,8.7q20.06-.42,40.15,0c7.83.16,11.08-2,10.84-7.83-.39-9.77-.12-19.56-.13-29.34h2.3c.24,9.53,1.44,19.12.32,28.56-.54,4.55,8.24,8.21,2,12.31-5.32,3.52-9.92-2.36-15.95-1.71-16.85,1.83-34.32-2.58-51,2.64-3.44,1.08-6.89-1.67-5.72-3.69,7.24-12.49,1.45-25.47,3.5-38.11Z"/><path d="M0,343.68c31.06-1.51,62.15,1.79,93.21-.29,5.26.76,5.32,1,1.43,5-9.19-2.85-18.87-1.45-28.24-1.26-16.6.32-33.26-1.58-49.89,1.56-4.71.89-10.67-2.37-16.51-1.67Z"/><path d="M813.79,0q0,33.11-.07,66.2c0,3.35.2,6.7-2.12,9.77a4,4,0,0,1-3.38.06c3.17-13.86,1.06-27.83,1.43-41.74.3-11.42-.28-22.86-.47-34.29Z"/><path d="M504.87,0a4.67,4.67,0,0,0,.38,1.62c5.59,6.28,8.6,13.29,11,20.47,20.65,10.34,22.51,25.32,21.38,42-.72,10.61-3.8,21.72,2.79,32.16,1.19,1.89-.28,3.22-2.23,4.24a5.47,5.47,0,0,1-5.32-.14c-2-1.1-2.55-2.43-1.77-4.37,7.27-18.07,1.54-36.58,3.21-54.85.23-2.48-2.56-4-4.67-5.54C524.85,32,520.43,27.9,514.92,25c-12.09-6.42-15.21-14.81-12.35-25Z"/><path d="M350.54,70.52c-3.36-2.43-2-7.36-9.29-8-3.61-.34-2.22-4.3-2.24-6.67-.12-18.61-.1-37.21-.12-55.82h4.61q-.25,27.72-.5,55.43c0,2.57,0,5.25,5.09,5.22C355.4,63.09,355.19,66.51,350.54,70.52Z"/><path d="M760.77,561q0-31.43.1-62.84c0-2.78.28-5.61-2-8.08,2.62-1.38,5-1.4,7.07.62l-.51,70.3Z"/><path d="M1152.68,523.94c-13.37-6.91-21.72-15.48-18.31-28.28,1.52-5.73-1.55-10.31-7.84-13.92-8.34-4.79-13.45-12.38-24.36-15a3,3,0,0,1-2.6-3.38c.16-1.33,1.29-2.05,3-1.95,2.12.12,5.38-1.09,6.15,1,3.07,8.25,13.08,12.21,20.49,17.58,6.88,5,10.68,10.06,9.19,17-2.18,10.13,2.33,18,14.27,23.57Z"/><path d="M650.11,0c2.83,10.53-.72,19.22-13.29,25.54C621.16,33.41,615.07,44.18,618.16,58c2,8.95-2.93,18.34,3.52,27.18,1.56,2.13-1.71,4.18-5.42,4C613.07,89,611,87,612,85.07c7.2-13,2.07-26.52,3.2-39.75.43-5.09,1.57-9.16,7.13-12.5,4.13-2.47,7.29-5.85,11.53-8.19,11.41-6.28,16.65-14.2,13.93-24.63Z"/><path d="M1021.28,561q-.21-36.24-.4-72.47c2.2-10.11-.68-18.24-15.7-21.72-2.38-.56-3.93-1.85-3.44-3.76a4.08,4.08,0,0,1,3.63-2.9c3.18-.48,4.49,1.1,6.39,2.63,13,10.5,13,23.12,12.53,36.23-.83,20.65-.53,41.32-.71,62Z"/><path d="M433.34,547.61l-.42-2.29c-.06-4.05,3.18-5.16,8.12-5.13,9.47.06,18.94.47,28.42-.18,5.58-.39,9.64,1.21,10.88,5.56a11.4,11.4,0,0,1,.11,2.61c-1.51,4.63-2.27,9.51-7.85,12.82h-2.31q-6.92-6.76-13.83,0h-2.3q-6.92-6.76-13.84,0H438C432.76,557.23,430,553,433.34,547.61Z"/><path d="M140,477.4c-5.33-1.28-9.18-.82-8.41,4.23.87,5.63-2.52,11.59,2.35,16.92.92,1.19.1,2.22-.54,3.26-3.55,5.94-3.76,11.84.35,17.7.54,1.36,2.21,2.75-.18,4-4.44,9.32-1,18.94-2,28.39-.32,3-.08,6-.1,9.06H129.1c-.15-2.8-.18-5.6-.47-8.39-1.14-11,.82-21.81-3.5-33-5.32-13.73,5.44-27.78,3.57-42a2.73,2.73,0,0,1,3-3.05c8,.17,7.16-4.6,8.81-8C145.34,470.31,145.62,473.93,140,477.4Z"/><path d="M1053.55,561c-.61-10.25,1.88-20.58-2.17-30.77-1-2.47.21-5.5.88-8.22,1.69-6.85,3.24-13.7-.84-20.36-1.29-2.1-1.13-3.83,1-5.3a5,5,0,0,1,6.06.25c2.3,1.68,1.83,3.29.39,5.26-4.44,6-3.37,12.64-1.31,18.71,1.75,5.13.94,9.5-.16,14.54-1.85,8.47-1.19,17.24-1.58,25.89Z"/><path d="M797.66,0c1.3,16.39-2.83,32.92,2.48,49.22.82,2.51-.8,4.61-4.69,4.59s-5.53-2.06-4.7-4.6c5.33-16.3,1.63-32.81,2.3-49.21Z"/><path d="M0,13.48c4.56,0,9.11-.08,13.67-.08C31.2,13.4,31.2,13.4,30,0h4.61c1.06,12.4-2.78,25,2.34,37.25.71,1.7.09,3.45-2.29,4.26a8,8,0,0,1-4.25.08c-2.42-.69-3.15-2.32-2.68-4.12.21-.79,1-1.48,1.34-2.27,6-15.65,2.59-19.13-18.85-19.38-3.4,0-6.79-.43-10.19-.66Z"/><path d="M728.5,561l.24-57.4c.91-1.53,2.17-2.49,4.6-1.45L733.11,561Z"/><path d="M1023.58,0c-1.1,7.05,3.46,13.39,4.7,20.15,4.4,24-12.2,40.4-36.48,54q-1.12,2-2.36,0c7-8.07,17.49-13.72,26.44-20.43,6.24-4.68,7.36-9.3,2.79-14.78-1-1.19-.12-2.22.5-3.27,3.71-5.94,3.93-11.87-.16-17.78-.56-1.37-2.21-2.75.14-4.06,4.16-4.35,1.06-9.3,2.13-13.9Z"/><path d="M20.84,543.76c-4.91,5.44-1.25,11.52-2.4,17.24H13.83c.09-14.81.3-29.62.18-44.43,0-4.6,1.35-7.75,8.77-7.35,10.24,2.91,1.61,6.38.56,9.63a22,22,0,0,0-.95,3.09,33,33,0,0,0-.47,6.19c0,1.76,0,3.51.08,5.28-.33,2.63,1.05,5.08,1.43,7.64A3.88,3.88,0,0,1,20.84,543.76Z"/><path d="M567.12,561a23.33,23.33,0,0,0-.3-5c-.75-2.78,2.3-6.88-3.15-8s-11.39-1.29-15.64,2.75c-3.61,3.44-10.18,5.21-10.88,10.31h-2.31c3.18-8.87,14.12-15.67,25.54-15.73q16.05-.09,32.08,0c11.24.05,22.53,7.08,25.38,15.73h-2.31c-1.76-6-8.55-9.29-14.47-12.41-7.81-4.12-15.06-.63-15.28,6.54-.06,2-.14,3.91-.22,5.87h-2.3q-6.91-7-13.84,0Z"/><path d="M1152.68,406c-21.29.83-42.79-2.33-63.91,1.85a5.24,5.24,0,0,1-5-1.43,2.69,2.69,0,0,1,.11-3.95c1.51-1.53,3.62-1.72,6.1-1.27,20.76,3.74,41.77,1.65,62.7,1.43Z"/><path d="M682.39,0c2.74,10.1-1.19,17.8-11.95,25.15-12,8.22-26.43,15.26-33.32,27-.74,1.25-2.77,1.86-4.92,1.55s-3.36-1.41-3.78-2.81c-.55-1.84.67-3.15,3-4,19.11-7.23,30.69-20.52,46-30.82,6.17-4.16,1.73-10.68,2.7-16.07Z"/><path d="M733.11,0c-.11,9.67.44,19.38-.52,29s5.25,15,16.6,18.18c-2.74,1.74-5.49,1.25-8.24,0-10.08-4.57-13.52-11.09-12.65-19.73.92-9.11.2-18.32.2-27.49Z"/><path d="M631.67,561c0-4.77-.6-9.58.14-14.29,1.29-8.17-1.4-14.77-11-19.64-4.42-2.25-5.27-5.66-5.54-9.57-.39-5.71,2.41-11.77-2.83-17.12-1.69-1.72-.06-3.21,1.76-4.31a5.17,5.17,0,0,1,5.29-.05c2,1.07,3.59,2.61,1.88,4.25-5.53,5.31-2,11.43-3.2,17.1a5.58,5.58,0,0,0,3.26,6.79c14,6.49,13.79,16.48,12.86,26.76-.3,3.35-.25,6.72-.35,10.08Z"/><path d="M391.91,0c.66,12.21-2.57,24.53,2.12,36.61.52,1.36.94,3-1.39,3.54a17.44,17.44,0,0,1-6.67.19c-1.67-.32-3.05-1.64-2-3.3,7.49-12,2.07-24.7,3.34-37Z"/><path d="M765.38,0c.91,12.42-2.87,25,2.41,37.27.57,1.33.57,3-2,3.31a20.56,20.56,0,0,1-5.65,0c-2.54-.37-2.47-2.06-1.89-3.35C763.79,25,759.85,12.41,760.77,0Z"/><path d="M338.89,561l-.23-47a4.43,4.43,0,0,1,4.89-.11q0,23.57-.05,47.14Z"/><path d="M1085.83,561c-1.1-12.46,3-25.09-2.48-37.41-.77-1.72.06-3.45,2.51-4.16a7.69,7.69,0,0,1,4.31.09c2.21.84,3.17,2.48,2.3,4.28-6,12.25-2.39,24.77-2,37.2Z"/><path d="M1152.68,559.32c-9.36-4.94-15-13.45-30.32-12.13-16.78,1.46-17.25.58-15.79,13.81H1102c-.14-4.37.63-8.61-1.88-13.06-2.24-4,.85-6.75,7.23-4.47,2.83,1,5.54,2.12,8.57,1.71,15.43-2.08,27.19,2.34,36.8,10.77Z"/><path d="M371.16,561c-.86-12.47,2.88-25.08-2.35-37.43-1.07-2.53,1.18-3.38,4.55-3.3,3.15.08,5.85.75,4.75,3.3-5.34,12.36-1.26,25-2.34,37.43Z"/><path d="M424.19,0c-.8,13.48,1.75,27.13-1.5,40.48l-3.11-.12V0Z"/><path d="M514.15,48.87c-10.55-8-20.3-16.71-31.87-23.82-11.38-7-14.51-15-12-25h2.31c-2.7,10.45,2.73,18.23,13.94,24.69s19,16.09,32.15,21.27C518.83,48.3,517.75,49.64,514.15,48.87Z"/><path d="M940.59,561c-.07-17.55-.58-35.11,0-52.65.23-6.75-2.75-9-11.59-8.22-5.27.47-10.65.29-16,.4-.81-.84-.71-1.62.29-2.35C943,498,943,498,943,519.91q0,20.54-.12,41.09Z"/><path d="M477.12,547.21a8.36,8.36,0,0,1,.1-1.41c2.73-3.52.7-6.51-2-9.43a4.24,4.24,0,0,1-.22-2.28c3.64-3.14,3.4-6.47.84-9.91a2.75,2.75,0,0,1,1.36-1.94c13.25-2,8.67-7.91,5.63-13.51l3.7-.34c4.3,5.82,1.91,12.1,2.11,18.16.38,11.48.1,23,.09,34.45h-2.31C480.66,557.37,479.17,552.19,477.12,547.21Z"/><path d="M0,131.41c13.66,2.6,13.85-5.21,16.32-11.27L18.47,123c3.2,3.26,9.1,4.45,11.74,8.16a4.56,4.56,0,0,1,.13,3.67c-2.43,3.83-8.45,5-11.63,8.27l-5.1,0C10,139.55,3.69,138.29,0,134.77Z"/><path d="M15.88,180.53C14.32,174,13,167.35,0,170.15v-3.37c3.77-3.56,10.1-4.88,13.88-8.44l4.56,0c3,3,8.26,4.13,11.52,7,1.33,1.4,2.35,2.86,1.89,4.65-2.29,4.56-10,4.63-13.16,8.5Z"/><path d="M809.18,561c-.13-8.32,2.66-16.75-2-24.89-1-1.7-.52-3.35,1.4-4.59a5.64,5.64,0,0,1,5.32-.42c2.24.92,3.6,2.58,2.54,4.23-5.4,8.34-1.44,17.14-2.69,25.67Z"/><path d="M359.64,0l-.22,36.74c-1.41,1.31-2.78,1.34-4.12-.06L355,0Z"/><path d="M956.73,561q-.3-37-.59-74.05a1.74,1.74,0,0,1,2.42,0L959,561Z"/><path d="M977.42,513.78c-4.51,7.17-1.41,14.74-2,22.11-.7,8.34-.2,16.74-.22,25.11h-2.31c-.05-13.08,0-26.16-.21-39.24,0-2.69,1.15-5.56-1.59-8-2.17-2-2.73-4,.34-5.82a5.23,5.23,0,0,1,5.27,0C979.85,509.56,978.83,511.69,977.42,513.78Z"/><path d="M0,60.65c12.34,0,24.69.17,36.87-1.71C39.18,61,42,63,39.58,66a3.21,3.21,0,0,1-3.29-.14C24.31,64,12.33,62.14,0,64Z"/><path d="M18.54,459.18C17.42,469.75,6.33,463.29,0,465V461.6c10.9,1.79,15.31-1,14.37-9.46-.52-4.71-2.75-10.15,3.35-14.23l1.5.08c1.17.95,3.7,1.72.74,3.18-2.7,4.94-.94,10.1-1.35,15.14C18.56,457.27,18.53,458.22,18.54,459.18Z"/><path d="M163.76,510.24l.12,2.16q-.1,24.3-.2,48.6h-2.3c-2.06-8.42-1.87-17.29-2.16-25.49C159,527.75,157.76,518.16,163.76,510.24Z"/><path d="M163.68,0c0,6.41-.31,12.83.08,19.23.36,5.94-2.34,12.2,3.46,17.7a2.75,2.75,0,0,1-1.16,4.5,13.43,13.43,0,0,1-6.52.33c-2.77-.5-3.17-2.77-2.26-4.12C165.44,25.45,159,12.48,161.38,0Z"/><path d="M891.47,32.09c2.17,4.38,6.59,6.07,12.55,5,6.67-1.26,3.78-5.53,3.92-8.48.45-9.51.29-19,.37-28.57h2.31c0,11.13,0,22.27-.06,33.4,0,2.35.67,6.25-4.19,5.5-10.73-1.65-12.88,5.12-18.31,8.71a6.2,6.2,0,0,0-1.21-.84c-3.36-5.31-1.12-10.07,2.67-14.69A14.1,14.1,0,0,0,891.47,32.09Z"/><path d="M0,214c11.65,1.61,15.33-2.1,14.24-10.36-.54-4.13-2.31-8.82,2.12-12.69l2.11,2.85c0,3.32,0,6.65,0,10-.05,15.26,1.19,13-18.43,13.6Z"/><path d="M375.77,0q-.25,16.92-.52,33.83a3,3,0,0,1-3.59,0q-.26-16.9-.5-33.82Z"/><path d="M1152.68,299.87c-10.15.34-20.52-1.73-30.41,1.63a5.74,5.74,0,0,1-6-1.31,2.69,2.69,0,0,1,0-3.94,5.68,5.68,0,0,1,6-1.31c9.91,3.29,20.27,1.27,30.43,1.56Z"/><path d="M306.61,561c-1.26-12.62,3.23-25.43-2.73-37.93-1.11-2.33,1.54-4.35,5.35-4,3.08.26,5.17,2.14,4,4.16-7.27,12.28-.61,25.35-4.29,37.8Z"/><path d="M1152.68,453.18c-10.1.53-20.47-1.71-30.33,1.66a5.72,5.72,0,0,1-6-1.25,2.62,2.62,0,0,1,.16-3.92,5.76,5.76,0,0,1,6.07-1.07c9.83,3.4,20,2,30.14,1.21Z"/><path d="M0,237.54H43.79c1.23,1.1,1.44,2.21.05,3.32L0,240.91Z"/><path d="M956.07,62.24,956.73,0H959l-.42,62.26A1.87,1.87,0,0,1,956.07,62.24Z"/><path d="M258.2,561l-.36-52.2c-4.19-4.8-6.07-9.09,4.36-10.71-2.92,16.18-.48,32.43-1.25,48.63-.22,4.76-.3,9.52-.44,14.28Z"/><path d="M260.51,0c2.3,8.25-3.12,17.15,4.2,25.07,1.19,1.27,1.24,4.13-2.1,4.9a12.47,12.47,0,0,1-6.52-.26,2.87,2.87,0,0,1-1.26-4.53C261.4,17.12,256.92,8.37,258.2,0Z"/><path d="M905.54,524.4c-27.2-2-27.2-2-27.2,17.51V561H876c-.18-11.11-.19-22.23-.6-33.34-.16-4.26,1.92-5.82,7.85-6,7.46-.18,15.25,1.49,22.39-1.47C907.35,521.64,907.37,523,905.54,524.4Z"/><path d="M1120.33,353.89c10.51,3.54,21.56,1.11,32.35,1.58v3.37c-10.74.82-21.81-1.82-32.29,1.66-1.05-.75-2.61-.94-3.58-1.78a2.61,2.61,0,0,1-.06-3.06C1117.67,354.78,1119.19,354.54,1120.33,353.89Z"/><path d="M0,272.92c8.83,0,17.67.12,26.5.06,5.73,0,9.75,1.34,10.46,5.93-11.73-5.29-24.65-1.69-37-2.62Z"/><path d="M1055.86,0c2.89,8.53-2.79,17.81,4.31,26,1,1.14-.33,2.67-2,3.56a5.77,5.77,0,0,1-5.3.1c-2.14-1-3-2.78-1.95-4.36,5.47-8.22,1.39-16.91,2.63-25.33Z"/><path d="M99.13,0c-.86,5.74,1.07,11.1,4.22,16.28l-4.14,2.45c-3.47,1.65-5.45.37-6.92-1.89.82-5.61,5-11,2.23-16.84Z"/><path d="M1005.14,561c-.34-9.53,1.7-19.23-3.7-28.42l1.59-1.51c6.7-.39,10.52.38,6.76,6.38-4.71,7.52-.63,15.74-2.35,23.55Z"/><path d="M193.36,512.49l3.31-1.95q-.36,25.23-.71,50.46h-2.31Q193.5,536.75,193.36,512.49Z"/><path d="M1152.68,417.8h-33.11c10.51-4.53,22.13-2.05,33.11-3.37Z"/><path d="M781.52,0l.22,23.45a4.5,4.5,0,0,1-5,0L776.91,0Z"/><path d="M680.08,561c-.87-4.29,1.54-8.86-2.46-12.9-1.87-1.89-.75-3.73,1.71-5a5.6,5.6,0,0,1,5.29,0c2.52,1.33,3.26,3.21,1.54,5.08-3.8,4.12-2.74,8.44-1.47,12.81Z"/><path d="M355,561l-.26-23.42a4.47,4.47,0,0,1,5-.11q-.06,11.78-.1,23.53Z"/><path d="M322.75,561q.19-11.06.38-22.12c.77-1.47,2-2.22,4.21-1.48q0,11.8,0,23.6Z"/><path d="M66.86,0q-.27,16.08-.53,32.17c-1.5.25-2.48-.16-2.95-1.24-.4-7.17.94-14.37-.82-21.52A14.27,14.27,0,0,0,62.24,0Z"/><path d="M647.81,561c-.57-4.37,1.62-9-2.35-13.06-1.5-1.54-1-3.36,1-4.54a5.71,5.71,0,0,1,6.25.18c2,1.33,2.59,3.06.9,4.49-4.62,3.88-2.13,8.66-3.48,12.93Z"/><path d="M908.31,561c-1.18-9,.76-18.08-2.23-27,1.91-1.32,3.63-3,6.78-1.66-3.11,9.44-1.85,19.07-2.24,28.63Z"/><path d="M795.26,522.12l.09,38.88h-2.3c.08-10,.08-20,.32-30.06C793.44,528,792.18,524.77,795.26,522.12Z"/><path d="M19.68,489.22,0,488.56v-3.37l25.11,1a1.81,1.81,0,0,1,.29,2.7A7.5,7.5,0,0,1,19.68,489.22Z"/><path d="M20.82,290.7c-6.16-4.17-13.76-2.25-20.82-2.62v-3.37C7.2,286.22,18,281.12,20.82,290.7Z"/><path d="M889.73,28.72c3.8-9.44,1-19.18,2.45-28.72h2.3c0,7.16.1,14.33,0,21.49C894.38,24.34,895.77,27.87,889.73,28.72Z"/><path d="M0,296.5c6.27.81,13.37-1.33,21.29,3.37H0Z"/><path d="M859.9,561c-2.21-9,1.17-18.12-2-27a4.08,4.08,0,0,1,4.75.28L862.21,561Z"/><path d="M0,402.64H17.81C12.66,407.3,6,405.5,0,406Z"/><path d="M1152.68,146.57c-6.55.08-13.34-1.17-19.39,1.85,2.88-8.83,12.86-3.59,19.39-5.22Z"/><path d="M573.87,13.39Q573.94,6.7,574,0h4.61l.15,13.4A4.48,4.48,0,0,1,573.87,13.39Z"/><path d="M1131.73,272.14l21,.78v3.37C1145.55,275.29,1136.83,278.58,1131.73,272.14Z"/><path d="M1152.68,288.08c-6-.69-12.6,1.16-18.07-3.37h18.07Z"/><path d="M0,308.3c6,1.78,15.17-3.63,18.53,4.29-6.07-1.47-12.33-.86-18.53-.92Z"/><path d="M1152.68,311.67H1134c6.1-5,12.93-2.43,18.66-3.37Z"/><path d="M296,328.65l26.69-19.45c.62-1.75,2.53-1.76,4.43-1.72,16.14.32,32.31-.77,48.42.57l85.16-.05c2.24-2,4.84-3.13,8.45-1.87,4.54,3.3,3,6.18-1.16,8.87-7.57.93-15.19,2-21.17-3-37.86-.16-75.71-.24-113.56-.54-5.83-.05-10.18,1.18-14.11,4.3-7,5.54-14.33,10.82-21.53,16.21-6.29,4.47-13.14,8.59-18.76,13.48-10.9,9.47-23,16.25-41.23,13.4-3.75-.58-6.41,1.72-9.72,2-3.57.32-6-1.17-5.79-3.9.21-2.28,2.63-3.5,5.66-3.14s5.72,1.65,8.67,1.87c13.68,1,26.22.46,35.73-8.87C279,340.13,288,334.66,296,328.65Z"/><path d="M96.18,483.21c0-1.12-.08-2.24-.1-3.36-.16-15.48-5.55-18.49-26.3-14.15-3.47.73-6.36,2.16-9.05-.51-1.24-1.24-.92-2.72.46-3.86,3.15-2.6,6-.15,9.16.14,13.1,1.21,24.92,2,37-6,16.44-10.91,25.31-22.43,21.37-38.61-2.32-9.5,2.49-16.67,12.8-22.53,5.71-3.24,10.38-7.45,15.53-11.21,2.18-1.59,4.34-3.39,7.71-3.29,21.78.65,29.5-12.62,40.78-22.19,2-1.66,2.48-4.05,6.39-3.76,2.21.16,3.62,1.26,4.06,2.6.95,2.92-2,3.58-5,4.54-10.89,3.48-16.77,11.18-25.44,16.57-3.46,2.15-6.13,4.73-11.54,4.71-21.9-.06-29.12,14.53-41.5,23.53-3.51,2.55-1.66,9.79-.73,14.72,2.64,13.89-1.94,25.58-18.65,33.25-16,7.34-14.5,18.49-13.92,29.68l-.89.52-1.3,0Z"/><path d="M265.11,496.13c-1.39-4.87,6.13-5.62,7.85-9.06,2.8-13.06.77-26.2,1-39.29.11-5.71,1.16-10.58,7.84-13.92,21.41-10.74,28.27-25.43,25-44-1.87-10.74-.36-21.8-.37-32.71,1.83-1,1.86-3.46,5-3.45a2.23,2.23,0,0,1,.27,3.6c-2.79,16.45-.94,33-1,49.44,0,6.64-1.52,12.21-9.15,16.13-20.86,10.69-28.69,25.1-24.2,43.41.92,3.79-.66,7.88.07,11.72C279.07,486.28,274.45,492,265.11,496.13Z"/><path d="M433.27,300l-48.34.18-108.38-.46a3.21,3.21,0,0,1-2.27-1.57c6.3-3,13.34-1.42,20-1.53,18.62-.33,37.25-.29,55.88-.4,2.69-2.82,6.74-3.49,11-3.58,20.93-.44,41.88-.53,62.81.07,3.44.1,6.88.45,9.35,2.56C434.83,296.86,434.86,298.44,433.27,300Z"/><path d="M140,477.4l.57-10.84c4.45-4.4,10.41-5.59,17.73-5.27,9.16.4,18.38,0,27.58.12,11.29.09,14.73,2.78,15.14,11.58,0,1.41.06,2.82.08,4.23-.28,9.37-3.39,11.8-15.64,11.93-9.89.1-19.79.13-29.68,0C143.18,489.06,140.12,486.69,140,477.4Z"/><path d="M34.81,488.51c13.2-2.31,12.4-9.72,12-17.19-.33-5.86-.09-11.74-.11-17.61,0-11.89,0-11.89-16.27-12.73-.05-2.49,2-2.49,4.49-2,15.46-.89,17.63,2.77,17.59,15.21,0,4.2-1.37,9.7,1.67,15.1,2.22,3.94-1.34,11.84-4.57,17.27C47.09,490.71,39.83,487.78,34.81,488.51Z"/><path d="M35,427c4.93-.1,9.87-.31,14.8-.28,7.25.06,11.57-2.42,17.66-5.73,19.63-10.69,10-24.12,10.65-36.65a4.46,4.46,0,0,1,5.48.18c-.15,8.41.6,16.9-.75,25.2-1.07,6.56,8.78,5.63,10.25,9.93a6.15,6.15,0,0,1-3.25,2.4c-3.88,2.39-10.09.86-13.33,4.28-2.68,2.82-2.69,6.43-5.17,9.3a6.33,6.33,0,0,1-2.69,1.17c-7.83-11.53-22.11-6.11-34-6.9-2,.09-3.15-.43-2.51-2.07v.12A2.66,2.66,0,0,1,35,427Z"/><path d="M85.86,378.6c13.29,1.82,26.7.52,40.05.78,3.87.08,6.41-1.66,8.63-3.61,7.69-6.76,19.29-11.06,23.37-20.12.78-1.74,3.31-2.21,5.8-1.83a4.21,4.21,0,0,1,3.71,2.85,2.9,2.9,0,0,1-2.41,3.47c-12.29,3.1-18.71,11.22-27.49,17.24-5.16,3.54-10.24,5-17.23,5.08-11.72.21-23.66-1.79-35.18,1.34C83.17,381.9,83.17,380.15,85.86,378.6Z"/><path d="M233.12,380.74a4.81,4.81,0,0,1-4,3.85C215.5,387.14,210,396.68,200,402.33c-2.95,1.68-4.18,3.93-3.77,6.63,1.51,9.84-3.42,20,3.17,29.61,1.23,1.78-.08,3.26-2.13,4.25a5.85,5.85,0,0,1-5.37-.19c-1.61-.87-2.86-2.31-1.83-3.62,7-8.95,2.43-18.61,3.23-27.9a15.1,15.1,0,0,1,6.43-11.88c8.17-6.33,19.43-10.86,23-20.16A4.54,4.54,0,0,1,229,377C230.87,377.9,232.77,378.92,233.12,380.74Z"/><path d="M258.05,428.53c-11.88-.82-14.46,3.51-13.26,10.66,2,11.74-3.83,23.9,3.59,35.39.84,1.29-.37,2.73-2,3.6a5.81,5.81,0,0,1-5.35.12c-2.11-1.05-2.77-2.6-1.9-4.37,6.4-13,1.29-26.52,2.84-39.74.87-7.4-8.51-3.13-13.1-6.21A75.51,75.51,0,0,1,258.05,428.53Z"/><path d="M272.14,373.08c-6.12,4.63-11.83,9.59-18.46,13.78s-9.47,8.94-8.86,15.37c.65,6.72-2.36,14.69,12.92,14.83H230.26c16.66-1.4,11.67-10.68,11.44-17.81-.17-5.28,2.52-8.81,7.38-12.47,8.14-6.15,18.5-11,23-19.44C274.37,369.24,273.74,371.16,272.14,373.08Z"/><path d="M35.1,497.7c6.52,0,13-.19,19.54-.11,7.51.1,9.89-2.22,6.8-7.27-3.46-5.65,0-6.89,7.2-6.75,9.17.18,18.36-.21,27.54-.36.51.19,1,.39,1.47.62-.53,3.72-4.6,3.22-7.63,2.95-6.69-.6-10.45,1.68-12.79,5.9-5.11,4-5.77,11.51-16.2,11.33-9.43-.16-19.72,2.82-27.53-3.77C33.25,499.13,33.78,498.28,35.1,497.7Z"/><path d="M161.33,412.81c-5.76-10.14,11.17-14.25,14-22.9.91-2.71,4.68-1.43,7.23.38,3.31,2.33,1.8,4.7-1,5.4-23,5.75-20.31,17.92-14.79,30.81.84,2,.19,3.28-1.73,4.31a6,6,0,0,1-5.39.06c-2.12-1-3.41-2.69-1.63-4.21C162.63,422.75,160.72,418.18,161.33,412.81Z"/><path d="M161.11,333.42c21.6-3.05,43.38-.9,65.08-1.17,1.21.17,2.31.43,2.41,1.53-14.25,3.16-28.84.81-43.26,1.38-7.26.29-14.58-.11-21.87-.2A3.36,3.36,0,0,1,161.11,333.42Z"/><path d="M228.6,333.78l-2.41-1.53,48.09-34.1,2.27,1.57Z"/><path d="M161.11,333.42l2.36,1.54-31.89,22.29-2.27-1.5Z"/><path d="M34.45,413.17l25-17.32a2.45,2.45,0,0,1,3.21.33L35.06,415.73C33.13,415.1,33.39,414.18,34.45,413.17Z"/><path d="M85.86,378.6l-.75,5.2a3.45,3.45,0,0,1-1.57.68l-5.48-.18c-3-1.67-2.76-4.35-1.11-5.82C79.25,376.41,82.91,376.73,85.86,378.6Z"/><path d="M62.69,396.18l-3.21-.33c1.44-2.38-2-6.81,5.35-6.72,2.5,0,4.43.39,4.81,2.61C70.35,395.83,67.13,396.47,62.69,396.18Z"/><path d="M49.4,372.42c-4-.06-5.77-.7-5.5-3s1.77-3.72,5-3.7c2.71,0,4.11,1.31,4.24,3.21C53.3,371.5,51,372.22,49.4,372.42Z"/><path d="M272.14,373.08l-.06-5.74c1.49-2.21,4.24-1.79,6.8-1.74l2.57,3.36C280.18,372.54,275.88,372.47,272.14,373.08Z"/><path d="M73.55,436.26c4.62,4.8,10.87,1.85,16.5,1.84-7.91,6.08-14.79,3.28-21.45-1.34l1.45-1.12a2.75,2.75,0,0,1,2-.34A2,2,0,0,1,73.55,436.26Z"/><path d="M89.93,438.15c3.76-4.15,7.66-8.26,6.89-13.64C101.61,431,98.35,435.25,89.93,438.15Z"/><path d="M919.78,379.07c-17.84-13.13-35.86-26.12-53.31-39.52-3-2.32-11.4-.43-9.48-6.51,1.45-4.59,4.57-3.91,7.66-1.22,1.88,1.64,2.08,4.38,4.1,5.85,16.72,12.24,33.69,24.31,50.59,36.42,3.49,4.4,8.85,5.35,15.5,5.31,30.89-.17,61.78-.1,92.67,0,4,0,8.45-1,12,1.45a3.49,3.49,0,0,1-2.22,1.67c-34.28-.05-68.56-.15-102.84-.07C928.9,382.45,923.91,382,919.78,379.07Z"/><path d="M947.23,417.76c7.91,6.06,15.85,12.09,23.71,18.17a13.91,13.91,0,0,0,9.29,2.6,65.7,65.7,0,0,0,6.88,0c26.9-3.62,47.05,3.89,63.16,19.41,3.93,3.78,6.54,7.06,6.53,11.87,0,5.16-2,10.62,2.9,15.43,1.91,1.88.58,3.76-1.9,5a5.71,5.71,0,0,1-5.36,0c-2.5-1.32-2.69-3.05-1.67-5.17,5.81-12,3.3-21.7-10.31-31.29-12.41-8.74-24.26-15.16-41.82-12.38-26.6,4.21-38.78-10.25-53.6-21.45C944.06,418.3,945.17,417.78,947.23,417.76Z"/><path d="M866.72,399.29c-8.31-4.7-7.84-11.38-7.61-18q-1.14-2.1,1.62-1.08c.53.08,1.06.18,1.58.3-1.87,8.18,2,14.35,10.73,19.81,9.87,6.2,18.18,13.72,28,20,7.62,4.88,11.38,10.31,9.73,17.59-2.14,9.45,2.82,16.27,12.49,22.69,12.41,8.25,24.85,16.64,35.33,26.35h-2.42C941.47,476.4,927,465.7,912,455.37c-6.15-4.24-4.55-9.38-4-14.07,1.14-9.12-2.73-15.87-12.49-21.76C885.32,413.35,876.28,406.09,866.72,399.29Z"/><path d="M880.66,374.19c-16.2-14.06-35.08-26.18-53-39-.49-1.49-.15-2.35,2.29-1.64l71.39,50.68c8.35,5.92,14,14,26.06,17,2.21.55,3.73,2.14,2.93,4a4.68,4.68,0,0,1-4.1,2.61c-2.62.28-4.48-.52-5.65-2.15C911.19,392.56,895.36,383.76,880.66,374.19Z"/><path d="M989.4,416.22c2.44-1.86,5.68-1.48,8.65-1.47,4.66,0,7-1.08,6.89-4.86S1001.68,406,998,406c-8.43,0-17-.78-25.25.11-15,1.61-23-4.75-31-12.36a12.2,12.2,0,0,1,2.49-.51c14.75,15.26,36.59,8.71,55.87,9.53,8.12.34,2.38-6.12,6.1-8.3,6.5,16.81,2.91,22.61-14.6,23.7C990,418.09,990.07,416.93,989.4,416.22Z"/><path d="M941.79,436.33a5.87,5.87,0,0,1,4.48,2.28c14,17.07,36.88,28.09,54.45,42.73,1.9,1.58,4.48,1.91,7.15,2.35,2.37.39,4,1.75,3.74,3.69-.17,1.52-1.61,2.55-3.53,3-2.45.55-4.56,0-5.91-1.65-13.85-16.79-36.3-27.73-53.58-42.18-2.41-2-5.39-2.85-8.88-3.44-2.24-.39-3.77-2.15-3.12-4S939.21,436.4,941.79,436.33Z"/><path d="M1021.67,392.63l9.12-4.8c6.19,3.83,13.64,1.57,20.48,2.14,4.58.38,9.29-.13,13.83.86,4.57.1,9,1,8.93,4.9-.06,6.88,2.38,13.92-1.78,20.63a9.26,9.26,0,0,1-4.7-1.81c-4-17.63-23.36-16.89-41-18.24C1024.12,395.67,1023.18,393.94,1021.67,392.63Z"/><path d="M1065.1,390.83c-9.92,3.34-20.32,1.31-30.51,1.38-3.68,0-3.52-2.45-3.8-4.38,4.48-.26,8.36-.91,6.5-5.32l2.22-1.67c-.91,8.41,7.11,6.61,13.73,6.42l5.11.1C1061.83,387.23,1064.68,387.76,1065.1,390.83Z"/><path d="M1009.4,503.05c-1.61,6-3.9,12,1.35,17.67,1.88,2.06.91,3.72-1.64,5a5.66,5.66,0,0,1-5.35-.07c-2.49-1.36-2.91-2.95-1.32-5.09,4.44-6,3.55-12.17.35-18.31-1.85-2.51-2-4.79,1.81-6.39a5.37,5.37,0,0,1,5.17.62C1013.44,498.8,1011.12,500.91,1009.4,503.05Z"/><path d="M1089.53,438.83c-2.92,3.63-7.16,2.2-10.67,2.51-7.08.62-14.49-1.37-21.29,1.68a5.5,5.5,0,0,1-6.07-1.11,2.64,2.64,0,0,1-.13-3.92,5.26,5.26,0,0,1,6-1.34C1067.49,440.58,1078.4,437.67,1089.53,438.83Z"/><path d="M1069.82,414.5l2.43,1.86c-15.41,3-31.08.84-46.63,1.16-4,.08-4.85-2.47-4.82-4.79.08-6.71-1.16-13.44.87-20.1l4.05,1.3c3.71,5,3.24,11.21,8.45,15.78,3.11,3.37,7.77,3.78,12.82,3.89,7.07.15,14.2-.6,21.22.59Z"/><path d="M989.4,416.22l2.28,2c.16,2.42-.31,4.75,2.74,6.8,2.25,1.51,2.3,4.2,0,5.95-2,1.5-5.1,1.37-7.36.32-3.13-1.46-3.06-4.35-1-5.78C989.88,422.69,988.16,419.25,989.4,416.22Z"/><path d="M947.23,417.76,945,419.94c-5.34,1.67-8-.67-8.88-3.85-.51-1.95,2.89-4,5-3.89C945,412.4,947.94,414.31,947.23,417.76Z"/><path d="M212,237.29l23.3.07a37.31,37.31,0,0,1,16-3.86c20.22-.14,40.43-.3,60.63.11,5.56.11,11.83-.23,14.46,4.86a4.26,4.26,0,0,1-.83,3.31c-3.67,3.23-8.93,3-13.81,3.09q-58.76.51-117.51,0c-5.32,0-10.95.06-14.52-3.79-11.52-1.34-23.4,1.29-34.77-1.71l2.45-1.61Z"/><path d="M39.29,65.69l10.63,6.93c16.24,11.31,29.41,25,49.33,33.42,2.71,1.15,3.32,2.64,2.58,4.91-4.77,14.51-4.18,29.08-.2,43.6.58,2.14,1,3.88-1.87,5.07a6,6,0,0,1-5.39-.32c-2.48-1.47-1.63-3.12-1-5.21,4.12-14.8,4.78-29.57-.84-44.36-1.26-3.32-4-5.28-6.87-7.43Q61,84,36.29,65.85Z"/><path d="M233.09,183.73q-18.9-18.4-37.81-36.8c-3.38-3.28-2.12-7.1-1.74-10.57,1.86-17.43-14.13-26.43-30.74-35-2.56-1.32-5.68-1.8-5.36-4.48.17-1.37,1.74-2.47,3.86-2.74,3.83-.48,4.95,1.34,6.57,3.5,6.33,8.4,15.6,14.9,26.9,19.65,3.31,1.4,6.29,2.08,4.48,5.38-6.56,12-3.84,22.41,7.86,32.3,10.17,8.6,18.89,18.12,28.25,27.23Z"/><path d="M207.33,194c-5-.2-9.94-.55-14.91-.57-18.56-.1-28.91-6.17-31.43-19.46-.91-4.82-5.07-4.19-9.06-4.2-6.18,0-8.55-1.74-6.42-6.11,2.59-1.27,3.79,7.78,7,.38l11.91,1.75c3.78-.42,7.76-3,11.13.6l3.49-2.86c.33.45.86.87,1,1.34.72,3.1-.88,5.09-5.43,4.76-8.54-.62-12.26,1.81-10.54,8.14,1.29,4.71,13.81,12.55,20.66,12.75s13.8.16,20.7.23C207.57,191.3,208.73,192.22,207.33,194Z"/><path d="M128.49,74.37l3.19-.14c-2.14,27.61,1.71,55,3.24,82.56-6.12.29-6.33.29-6.34-5.89-.06-22.15,0-44.29.06-66.44C128.65,81.09,128.55,77.73,128.49,74.37Z"/><path d="M96.17,74.13c.06-12.8,0-25.6.26-38.4,0-2.95-1.12-5.34-3.35-7.73-1.4-1.5-.8-3.26,1.48-4.33A6.66,6.66,0,0,1,100,23.5c2.29,1,3.5,2.8,2.13,4.2-5,5.12-2.48,10.71-2.6,16.14-.14,7.23.34,14.5-.58,21.68-1.06,8.32,5,13,13.91,16.3,2.8,1,6,1.34,5.65,4.22-.22,1.8-1.89,3.07-4.54,3.11-3.81.06-4.91-1.81-5.75-4.2C106.49,80.05,99.63,78.07,96.17,74.13Z"/><path d="M322.71,213.66c2.93,1,6,2,4.29,5.07-2.54,2-6,2.4-9.43,2.48q-30.93.64-61.86,0c-3.46-.07-6.84-.54-9.67-2.2s-3-3.41.61-4.76l0-.74Z"/><path d="M161.15,215.79c-16.43-11.8-32.75-23.68-49.36-35.34-4.82-3.38-8.2-8.23-16.09-8.89-2.32-.2-3.74-2-3.2-3.9.42-1.47,1.82-2.45,3.89-2.73a5.88,5.88,0,0,1,5.7,2c16.39,18.55,40.82,31.53,61.45,47.15C164,215.65,163.62,216.52,161.15,215.79Z"/><path d="M66.86,43.86q.19,10.1.37,20.2c-2,6.4.9,11.27,7.79,15.48a112.36,112.36,0,0,1,22,17c-12.61-7.18-24.91-14.57-34.47-24C62.87,63,64.16,53.46,62,44A4,4,0,0,1,66.86,43.86Z"/><path d="M274.25,189.71c19.73.22,39.46.34,59.17.78,3.08.07,9.64-2,7.73,3.91-18.52-1.7-37.12-.25-55.66-.84C281.58,193.43,274.77,195.88,274.25,189.71Z"/><path d="M161.15,215.79l2.39-1.67,62.18-.35c1.64,1.24,1.65,2.47,0,3.71l-13.64-.06C195.14,216.15,178,218.84,161.15,215.79Z"/><path d="M162.25,89.3c-3.83-.86-5.78-2.18-4.3-5.48,4.82-10.71,5.33-21.47-.25-32.16-1-1.88-.06-3.29,2-4.32a5.83,5.83,0,0,1,5.36,0c2,1.06,2.79,2.47,1.88,4.36-5.21,10.72-4.77,21.52-.25,32.25C168.07,87.27,166.17,88.57,162.25,89.3Z"/><path d="M145.33,156.62c-.15-5.33-.66-10.66-.31-16,.21-3-2.75-7.59,3.19-8.71,5.66-1.06,12.22-1.65,17.53,1.75,9.45,6.07,18,12.4,13.75,22.86-2,1.69-3.77.6-5.58-.2-2.28-2.52-2.11-5.8-4.81-8.2-2.69-3.06-5.56-6-10.3-7.47a4.35,4.35,0,0,0-3,.8c-2.46,4.57-3.12,9.5-6,13.92A4.63,4.63,0,0,1,145.33,156.62Z"/><path d="M175.45,155.42l4,1.13a70.88,70.88,0,0,1-34.16.07l2.42-1.8C157.12,151.57,166.41,150.48,175.45,155.42Z"/><path d="M248.66,192.14c-.71,2-2.33,3.48-5.39,3.3-3.5-.21-5.47-1.72-4.77-4.4.42-1.61,1.35-3.22,4.32-2.93C246,188.42,248.59,189.29,248.66,192.14Z"/><path d="M207.33,194c-.65-1.08-1.29-2.16-1.93-3.25,2.71-1.45,5.43-3.42,8.88-1.2,1.78,1.15,2.4,2.83.58,4.39A5.33,5.33,0,0,1,207.33,194Z"/><path d="M225.71,217.48c0-1.24,0-2.47,0-3.71,1.21-3.23-1.74-7,2.39-9.86v22.21C224.5,223,226.61,220.05,225.71,217.48Z"/><path d="M761.35,307c8.48,2.51,17.37,1.21,26.06,1.32,21,.26,42,.32,63,.07,7.5-.08,12.92,1.72,18.12,5.61,12.79,9.58,26.12,18.77,39.23,28.12,9.81,10.29,22.19,15.35,40.4,14,17.32-1.28,35-.19,52.46-.15,1.13.89,1.2,1.76,0,2.63l-76.08.08c-19.25-14.07-38.63-28-57.66-42.28a22.46,22.46,0,0,0-14.94-4.88c-23.39.32-46.79.32-70.19.44-10.93,5.7-19.3,4.63-23.89-3A4.81,4.81,0,0,1,761.35,307Z"/><path d="M800.19,272.67c21.88.11,43.75,0,65.61.42,7.46.13,13.48-1,18.08-5.48,5.28-5.12,12.24-6.83,21.08-6.46,12.24.5,24.6.62,36.81,0,11.2-.61,20.26,1.12,27.29,7.83,2,1.89,4.39,4,8.43,3.87,14.68-.33,29.5,2.15,44-1.59,3.19-.82,6.25.59,6.3,3.35s-3,4.21-6.22,3.42c-16-3.9-32.48-.61-48.61-2-9-9.86-21.61-13.08-37.35-11.71a155.48,155.48,0,0,1-21.8.07c-12.71-.68-24.33.07-32.39,8.67-3.2,3.42-8.51,3.23-13.58,3.23q-33.89,0-67.78.2C798.72,275.14,798.73,273.9,800.19,272.67Z"/><path d="M956.84,287.73c-9.33-10.15-22.63-12.86-38.59-11.66-7.92.59-16-.05-24-.14-1.19-.18-2.29-.43-2.39-1.52,15.65-2.9,31.55-1.06,47.34-1.2,5.82,0,8.21,4.62,12.8,6.47,3.09,3.55,7.23,5.26,13.27,5.19,24-.25,48-.25,72-.35,1.49.16,1.6,1.31,2.51,1.88-3.09,2.42-7.14,1.5-10.8,1.5C1004.9,287.92,980.87,287.8,956.84,287.73Z"/><path d="M1106.25,332.28c-4.16,4.08-8.73,2.79-12.63,2.81q-39.09.2-78.17,0c-5.71,0-11,.41-14.06,4.15-5.89,7.06-16.21,7.44-25.43,9.51-2.38.54-4.51.15-6-1.47-1.22-1.3-1.28-2.55,0-3.84a5.58,5.58,0,0,1,6.06-1.3c10.58,4.86,17.2.25,23.51-5,4-3.35,8.56-5,15-4.93C1044.72,332.4,1075,332.28,1106.25,332.28Z"/><path d="M926.61,309.72c-4.93-1.59.51-6.91-5.29-8.07-7.82-1.56-12.16.48-12.21,7.87,2.81-13-12.14-5.86-17-9.67-1.31-1.11-1.3-2.21,0-3.32,2.15-.48,4.39-1.55,6.42-1.36,7.3.68,10.78-1.5,10.65-7.27,1.55,3.66.44,7.49,8.29,7.48,8.22,0,5.84-4.65,9.38-9.58-3.1,12,8.65,8,14.15,10.35a2.86,2.86,0,0,1-.13,4.05C934.11,301.77,923.6,300.34,926.61,309.72Z"/><path d="M1117.76,358.66l2.63,1.84c-23.6-.07-47.19,2.37-70.8-1.45-7.76-1.26-16.75-1.83-24.76,1.4a5.64,5.64,0,0,1-6.09-1.24c-1.3-1.31-1.13-2.56.06-3.84a4.89,4.89,0,0,1,5-1.44c12.36,4.05,24.36.62,36.73-.07,19.83-1.1,39.88-.09,59.84,0l-2.57,1.76c-14.08,3.56-28.6.22-40.2,1.5C1089.16,358.44,1103.69,355.09,1117.76,358.66Z"/><path d="M1012.14,296.42c8.81.08,17.68-.25,26.43.34,11.12.76,20.31-1,27.13-7.88,2-2,4.87-4.19,8.52-3.81,10.91,1.13,17.91-3,24.6-8.44s14.93-4.05,23.62-1.22c-14.63-1.67-24.27,3.73-32.58,11.08-19.36-2.72-27.75,14.71-46.65,13.43-10.26-.7-20.69,0-31,.07C1010.83,298.81,1010.83,297.62,1012.14,296.42Z"/><path d="M1012,320.65c16.18-2.48,32.59-1.87,49-1.87,3.74,0,7.72-.67,11.06,1.31,1.36,1.12,1.36,2.26,0,3.39-16.21,2.62-32.54,1.91-48.75.37-3.75-.36-7.5-.69-11.28-.91A1.61,1.61,0,0,1,1012,320.65Z"/><path d="M988.79,309.89c6.43-2.71,13.46-1.36,20.2-1.42,21.67-.18,43.35-.07,64.7-.07-4,3.23-4,3.24-40.08,3.2q-21.19,0-42.4-.08C990.21,311.13,988.92,311,988.79,309.89Z"/><path d="M988.79,309.89l2.42,1.63c-3,2.1-6.74,3.89-9,6.37-13.37,14.55-33.35,18.52-55.6,19.17-3.59.11-6.3-.73-6.23-3.52s3-3.77,6.44-3.29c2.94.4,5.72,1.61,8.64,1.78,13.18.78,25.56.57,34.57-8.72C975,318.18,982.45,314.32,988.79,309.89Z"/><path d="M1039.73,286.4l-2.51-1.88c0-8.4-.22-16.81.26-25.2.27-4.9-1.49-7.44-8.84-6.82-6,.5-8.73-1.32-6.85-6,3.33-.57,1.88,4.7,6.45,2.84,1.31-.54.31-8,5.25-.88,2.75,4,2.8-2.67,5.52-2.11,2.23.46,3,6,5.64,2.34,3.93-5.6,2.86-1.44,5.1.33,3.76,3,2.77-3.14,6.12-2.32,1.65,3.89.05,6.27-5.8,5.74-8.79-.78-10.08,2.55-9.9,7.92C1040.46,269.05,1039.92,277.73,1039.73,286.4Z"/><path d="M991.57,251.19c-4.27,2.47-9.47,1-14.14,1.82l-36.69-.64c-.11-.42-.22-.83-.34-1.24a3.37,3.37,0,0,1,2.34-1.57l25.45-.42,21.1.57Z"/><path d="M1084.78,299.24c5.91-3.91,12.73-1.35,17.38-4.3,1.34-.85,4-.5,4.81,1.06a4.85,4.85,0,0,1,.25,4c-.91,2-3.78,2.28-5.66,1.29C1096.75,298.76,1091.19,300.32,1084.78,299.24Z"/><path d="M940.87,300.2c0-1.35.09-2.7.13-4.05,4.6.2,9.47,1.84,13.41-1.38,4.52-.34,9.56-.28,8.15,4.28-1.09,3.51-5.38,3.17-9.33,1.58S945,299.72,940.87,300.2Z"/><path d="M1012.14,296.42l0,3.57a7.64,7.64,0,0,1-9.82.56,2.83,2.83,0,0,1,0-4.65A7.58,7.58,0,0,1,1012.14,296.42Z"/><path d="M989.58,294.61c4.06-.2,6,.81,6,3.74-.08,2.43-1.61,3.43-4.83,3.49-3.64.06-5.71-.87-5.59-3.79C985.22,295.66,986.68,294.48,989.58,294.61Z"/><path d="M1072,323.48c0-1.13,0-2.26,0-3.39h20.33C1085.45,325.1,1078.2,322.55,1072,323.48Z"/><path d="M1000.59,358.57l0-2.63c3.07-1.68,6.18-3.51,9.84-.81,1.86,1.37,1.75,3-.08,4.37C1006.66,362.21,1003.61,360.24,1000.59,358.57Z"/><path d="M1012,320.65v2.29c-2.57,1.65-5.2,3.59-8.62,1.11-1.8-1.31-1.79-3.09,0-4.43C1006.76,317.11,1009.42,318.93,1012,320.65Z"/><path d="M343.55,513.86l-4.89.11c-9.15,0-18.3-.05-27.45,0-3.11,0-6.69.22-6.87-2.87-.21-3.43,3.1-3.7,7-3.67q29.73.17,59.47,0c3.94,0,7.19.29,7,3.72-.19,3.1-3.65,2.93-6.81,2.9C361.85,513.89,352.7,513.89,343.55,513.86Z"/><path d="M403.37,436c5.1-.1,7.87,1.57,7.75,5.44-3.66,2.71-3.06,6.16-3.07,9.49,0,13.73,0,27.47-.08,41.2,0,5.69-13.22,12.29-20.19,10.2-2.53-.76-3.48-2.26-2.89-4,.88-2.67,3.7-3.88,6.95-2.66C405,500.57,404,493.77,403.59,488c-1.17-16.11,3-32.38-2.65-48.39C400.59,438.64,402.51,437.23,403.37,436Z"/><path d="M472.84,451.39c4.28,11.18,3.42,22.87.85,33.74-1.54,6.55,3.2,11.81,1.32,17.7-3.95-.5-8.59-.13-9.71-4.15,8.62-5.59,2.24-11.52.76-17.35a33,33,0,0,1-.09-21.51l2.31-8.24A3.9,3.9,0,0,1,472.84,451.39Z"/><path d="M359.69,419.52q-.07,18.93-.16,37.87c0,3.07.77,6.6-3.22,8.56-15,7.35-14.32,18.12-12.61,29.22a4.51,4.51,0,0,1-5.08-.05c.09-3.64.65-7.32.14-10.92-.91-6.41,1.6-11.54,8.73-15.4,6.06-3.28,8-7.62,7.74-13.13-.51-12.05-.2-24.11-.22-36.17A4.33,4.33,0,0,1,359.69,419.52Z"/><path d="M354.78,495.13c-.71-6.07,2.21-10.93,9-14.53,6.14-3.27,7.84-7.65,7.68-13.14-.47-16-.26-32-.32-47.94a4.33,4.33,0,0,1,4.69,0c0,15.7-.44,31.41.06,47.1.2,6.42-1.87,11.49-8.95,15.38-6,3.3-9,7.54-7.05,13.16A4.51,4.51,0,0,1,354.78,495.13Z"/><path d="M375.81,419.51H359.69l-4.68,0h-11.5a4.42,4.42,0,0,1-4.8.11c-10.29-2.29-5.11-4.66-.06-7,4.54-1.45,8.88-3.47,14.21-2.81l3,.26c1.52.07,3.05.13,4.57.16,4.14,0,8.28-.09,12.42.12,2.32.14,3.76,1.37,5.42,2.33,3.06.9,3.19,2.93,3.55,4.88Z"/><path d="M378.27,412.64l-7.09.11c-4.13-3.23-8.12-.8-12.15.16l-3.81-.07c-1.12-.77.42.27-.7-.49a4.3,4.3,0,0,0,.64.55c-5.6,2.61-11.07,1.56-16.51-.32l.19-8.26c2.92-.45,5.87-1.33,8.77-1.26,7.16.18,8.35-2.48,6.92-6.77,1-1.32,2.58-1.64,4.46-1.56,4.9,2.62,7.8,7.16,14.46,8.12C375.75,405.93,378,409,378.27,412.64Z"/><path d="M322.31,382.45c1.44-1.56,2-4.85,5.92-1.68-3.6,16.18,1.7,32.82-3,48.94l-2.89-.09Z"/><path d="M477.21,522.24a3.65,3.65,0,0,0-.13,1.35c-6.45,7.16-37.33,7.46-43.73.42-.18-.76-.36-1.51-.53-2.27,2.62-2.43,5-2.48,9.58-1.73,7.78,1.28,16.73,1.63,24.23,0C472.21,518.82,474.15,520.37,477.21,522.24Z"/><path d="M322.44,495.05c1.32-11-2-22.24,1.87-33.05l3.16.12v33.1A4.39,4.39,0,0,1,322.44,495.05Z"/><path d="M338.71,419.6l4.8-.11c-1.36,10.87,1.37,21.94-1.59,32.73l-3.21,0Z"/><path d="M435.64,443.08l-1.87-3.23c-1.82-1.48-.1-2,1.31-2.67a5,5,0,0,1,3.13.59c4.06,6.73,2,13.74,1.72,20.66-.75,1.42-1.84,2.34-4.12,1.52Q435.72,451.52,435.64,443.08Z"/><path d="M314.28,440.35c-.49,1.84-2.83,4-6.29,3.85-2.51-.13-5.95-2.12-5.31-4.48s2.91-4.39,7.15-4.07C313.09,435.9,314.42,437.19,314.28,440.35Z"/><path d="M435.81,460l4.12-1.52c1,2.37,5.18,3.51,4.68,6.46-3.25,1.19-5.55,5.11-10.39,1.24C430.48,463.13,433.62,461.77,435.81,460Z"/><path d="M322.44,495.05l5,.17c3.26,1.95,3.12,4.47.77,6.42-1,.86-5,1.08-6.22.34C318.6,499.88,318.87,497.26,322.44,495.05Z"/><path d="M338.62,495.12l5.08.05c3.23,2.33,3.6,4.9-.08,6.9-1.58.86-4.91,1-6.28-.5C335.37,499.4,335.06,496.93,338.62,495.12Z"/><path d="M354.78,495.13l5.09,0c3.27,2.31,3.55,4.84,0,6.93a7.48,7.48,0,0,1-5.39,0C351.15,499.91,351.17,497.37,354.78,495.13Z"/><path d="M327.34,537.4l-4.21,1.48c-1.92-2.32-5.23-4.6-.92-7.27a4.89,4.89,0,0,1,5.24.08C330.5,533.6,330,535.53,327.34,537.4Z"/><path d="M359.74,537.47l-5,.11c-2.5-1.76-3.36-3.66-.57-5.65a5,5,0,0,1,6-.08C363,533.81,362.28,535.7,359.74,537.47Z"/><path d="M1027.1,131.79c9.49-1.22,18.11,1.37,26-2.14a5.81,5.81,0,0,1,6.16,1c1.31,1.15,1.59,2.54.4,3.87-1.73,1.93-4.1,2.25-7,1.45-13.7-3.79-27.93-.92-41.87-1.69a9.94,9.94,0,0,0-7.1,2.29c-13.4,11.29-31.56,19.41-41.36,33.11-1.2,1.68-3.1,2.39-5.66,2.09a4.37,4.37,0,0,1-3.89-2.74c-.54-1.46.38-3,2.17-3.56,15.09-4.61,24.13-14.37,34.69-22.54C1000.63,134.48,1011.63,128.43,1027.1,131.79Z"/><path d="M1064,175.15q-42.81,31.32-85.55,62.7c-4.45,3.28-9.66,2.68-14.93,2.6-1.08-.87-1.12-1.73,0-2.58,7.51.73,12.78-1.79,18-5.59q34.24-25.26,69.14-50.06C1054.48,179.45,1057.19,175.15,1064,175.15Z"/><path d="M936.44,228c.34-2.23,1.59-3.17,3.24-4a242.09,242.09,0,0,0,61.84-44.84c1.82-1.8,3.63-3,6.57-2.33a5.52,5.52,0,0,1,3.17,2.16c1.12,1.82-.15,3.75-2.38,4.12-10.74,1.76-15.53,8.75-22.67,13.56-11,7.41-21.24,15.42-31.91,23.1-3.58,2.57-6.84,5.09-8.18,8.85-.75,2.09-3.63,3-6.51,1.89C938.12,229.94,937.18,228.62,936.44,228Z"/><path d="M942.74,249.56l-2.34,1.57C928,244.89,921,234,906,229.85c-3.59-1-1.72-3.82-.19-5.83,3.07-.37,6.45-.71,7.9,1.83C919.67,236.24,932.78,241.86,942.74,249.56Z"/><path d="M943.21,146.85a2.28,2.28,0,0,0-3.06.09c-4.28-1-9.13.58-15.49-2.61,12-1.71,21.78-1.1,34.9-.71C952.69,147.63,947.51,145.93,943.21,146.85Z"/><path d="M1129.53,99.66q-1.15-1.87-2.29-3.75c6.79-2.19,13.4-3.35,18.88,1.8C1141.49,102.44,1135.35,100.33,1129.53,99.66Z"/><path d="M963.51,237.87l0,2.58c-3.05,2.69-6.94,2.58-11,1.79C952.36,235.67,954.8,232.52,963.51,237.87Z"/><path d="M1025.76,164.68l2.25,2.13c1.59,3.62-1.89,5.35-5.4,6.05-1.35.27-5.41-2.33-5.35-3.56C1017.42,165.82,1020.69,164,1025.76,164.68Z"/><path d="M1069.7,164.64c3.71.15,7.2.89,6.59,4.2-.68,3.73-5.75,2.76-9,3.71C1066.83,169.71,1065.5,166.72,1069.7,164.64Z"/><path d="M687.85,336.85c8,5.6,15.8,11.29,23.92,16.77,6.73,4.53,4.91,10.39,4.52,15.74-.58,7.75,1.2,14.32,10.54,19,5.36,2.67,5.32,6.91,6,11.16,2.2,12.86-.81,25.7.33,38.53.3,11.91-3.15,23.93,1.83,35.71.74,1.75.4,3.36-1.73,4.45a6,6,0,0,1-5.39.06c-2.17-1.05-2.83-2.8-1.73-4.41,4.2-6.15,2-12.59,1.94-18.94-.34-12.48,1.27-24.89-1.36-37.49-1.18-5.68,1.77-12.45,1.88-18.82.06-3.55-.58-6.86-4.79-8.93-11-5.4-12.64-13.15-11.72-22,.35-3.37,2-7.27-2.07-10.34-1.74.66-4.09,1.23-5.35.31-8.06-5.9-18.69-10.26-21.88-19.13a4,4,0,0,1,1.89-2.2A2.77,2.77,0,0,1,687.85,336.85Z"/><path d="M711.9,458.28c-.78-9.79,4.1-19.89-3.4-29.36-1.52-1.92,1.65-3.48,3.71-4.69a4.53,4.53,0,0,1,5.09.46c1.92,1.32,4.15,2.56,2.55,4.93-6.26,9.26-3,19-2.8,28.63-.47,34.08-8.4,26.55,36.72,27.38a28,28,0,0,0,4.5-.62c1.49,1.35,1.53,2.65-.26,3.89-11.46-.09-23-.62-34.37-.13-9.43.42-12-2.31-11.51-8.72C712.67,472.82,712,465.54,711.9,458.28Z"/><path d="M777,463.47c16.51-7.76,18.54-19.36,16-32.18a4.4,4.4,0,0,1,4.78.07c0,3.93-.63,7.9,0,11.77,1,6.49-1.84,11.52-8.9,15.35-6.11,3.32-8.34,7.71-7.53,13.19,1.26,8.55-2.32,17.34,2.39,25.76.87,1.56.57,3.36-1.7,4.5a6.27,6.27,0,0,1-5.4.12c-2.35-1-2.76-2.74-2-4.41C779.72,486.4,775.87,474.84,777,463.47Z"/><path d="M749.27,438c6.81.16,13.64.21,20.44.51,3.47.16,8-1.08,9.36,2.87-12.15-1.54-15.3,2.86-13.88,10.82,1.27,7.12-1.91,14.47,2.23,21.49,1.08,1.82.84,4-2.34,4.93a8.26,8.26,0,0,1-4.33-.05c-3-1-3.35-3.1-2.14-5,4.45-7,1-14.34,2.36-21.44,1.48-8-1.84-12.29-13.9-10.76Z"/><path d="M912.86,532.37,906.08,534l-.54-9.63.14-4.18q0-14.87,0-29.72c-.83-2,.53-3.27,2.9-3.83a3.85,3.85,0,0,1,4.4,1.89l.41,9.62c-.1.79-.2,1.57-.29,2.35Q913,516.44,912.86,532.37Z"/><path d="M811.12,441.48c-.18-7.79-.06-15.59-.6-23.37-.62-8.88,1.64-15.95,11-23.11,9.73-7.45,4.47-18.31,2.52-27.8,2.6-.53,4.22.7,6,1.74,2.36,6.28,2.35,12.7,2.21,19.13-.09,4.16-1.28,7.85-7.54,9.37l-6.43,4.68c-4.41,1.82-4.36,4.87-4.34,8,.07,8.34.21,16.68-.08,25C813.73,437.28,816.07,440.31,811.12,441.48Z"/><path d="M850,406l2,1.94c5.29,4,10.3,8.28,15.93,12,6.72,4.5,11.33,9,10.93,16.46-.33,6.08,6.76,9.54,14.25,11.53,2.78.74,5.12,1.59,4.88,3.91-.18,1.71-1.58,3.22-4.3,3.4a5.7,5.7,0,0,1-6-3.11c-4.32-7.6-15.19-12.74-13.68-22.87.46-3.11-7.93-7-12.34-10.41s-9-6.87-13.44-10.3C846,406.66,848.23,406.4,850,406Z"/><path d="M862.66,534.25l-4.75-.28a43.75,43.75,0,0,1,.18-23.32,3.21,3.21,0,0,1,4.23-.25C865.73,518.32,865.27,526.28,862.66,534.25Z"/><path d="M878.24,465.29c0,9.77-.22,19.53.09,29.29.15,4.92-1.85,10.08,2.45,14.72,1.43,1.55.66,3.3-1.6,4.33a5.75,5.75,0,0,1-5.35-.09c-1.63-.94-2.76-2.36-1.83-3.67,7.58-10.63,1.89-22,3.51-32.95.56-3.82.09-7.73.09-11.6Z"/><path d="M862.32,510.4l-4.23.25c-.48-7.4,3.12-15-2.43-22.16-1.25-1.62-.11-3.28,2-4.37A5.9,5.9,0,0,1,863,484c2.11,1,3.51,2.65,2.25,4.25C859.66,495.36,863.51,503,862.32,510.4Z"/><path d="M850,406l-1.77,2.58-2.19.7c-3.75-.79-7.3-2.22-8.64-4.82-1-2,2.81-2.48,4.5-3.09C848.44,398.94,849.47,402.33,850,406Z"/><path d="M865.32,475.48c-.53,2.37-2.54,3.46-5.62,3.23-3.27-.24-4.29-1.95-4.45-4.15s1-3.05,4-3C862.78,471.7,865.05,472.73,865.32,475.48Z"/><path d="M758,488.9c.09-1.3.17-2.59.26-3.89a6.85,6.85,0,0,1,8.47-.63c2.35,1.69,2,4.38-.85,6.32l-7.07-.62A2.7,2.7,0,0,1,758,488.9Z"/><path d="M797.81,431.36l-4.78-.07c-4.72-5.44-1.48-7,5.93-6.43C800.13,427.17,800.94,429.45,797.81,431.36Z"/><path d="M825.27,424.41c7.88-.15,7.86,3.58,7.06,7.69C826.06,431.45,819.43,431,825.27,424.41Z"/><path d="M912.93,488.56c-2.82-.13-5.54-.06-7.3,1.94-2.65-3.12-2.88-6.14,2.89-6.85C913,483.1,915.59,484.93,912.93,488.56Z"/><path d="M590.39,369c-2,2.59-4.69,4.77-4.65,8.21.2,18.59,0,37.18,0,55.76a3.59,3.59,0,0,0,2,3.68c3.81,5.59-2.65,10.29-2.34,15.89a296.89,296.89,0,0,1-2.14,56.17c0-9.95-1.49-20.06.38-29.83,2.35-12.3-5.92-20-16.91-27.33V418.11l2.86,0c0,8.21.73,16.47-.22,24.63-.91,7.8,3.59,12.61,14.48,17.31-3.85-18.28.77-35.24-.95-52.29-.82-12.53,3.82-25.28-3-37.58-1-1.75.17-3.43,2.38-4.16C586.39,364.64,588.49,366.79,590.39,369Z"/><path d="M631.29,424.58c.11-12.82.26-25.65.29-38.47,0-1.63.28-4.1-1-4.77-11.38-6-14.89-15.39-19.8-24.18,2.28-2.41,4.88-4.75,9.21-2.56,3.29,1.67,1.44,3.68,0,5.82-5.67,8.32,3,11.63,11.08,16.58.53-6.36,2-11.53-1-16.47-1.3-2.15-3.18-4.28-.06-5.9,4.23-2.19,7-.1,9,2.61.09,17.6,1.76,35.2-.6,52.78a27.45,27.45,0,0,0,.66,2.82c-4.57,3.21-4.77,7.28-4.75,11.59.1,28,0,56,0,84l-2.2,1.85Q631.71,467.45,631.29,424.58Z"/><path d="M551.27,453.09c-.14-7.56.24-15.15-.56-22.67-1-9.41.43-17.78,12.14-23.6,3-1.49,4.25-3.83,4-6.59-.79-11,2.32-22.25-4-32.89,2.89-1.31,5.77-3.13,9-.46,2.29,1.9,0,3.43-.6,5.25-3.55,10.64-1.27,21.48-1.52,32.24-15.86,8.23-18.57,19.89-16.46,33,.66,4.12.33,8.33.45,12.5.18.53.1,1.33.56,1.55,16.65,8.09,16.11,20.32,15.33,32.82-.57,9.24-.18,18.51-.12,27.77,0,2.74-.89,5.71,2.28,8,3,2.08,2.18,3.85-.47,5.67-2,1.35-3.69,1.78-5.83.2-2.32-1.72-4.36-3.36-1.12-5.6,3.58-2.48,2.61-5.7,2.62-8.71,0-11.22-1.19-22.53.31-33.64S563.19,459.07,551.27,453.09Z"/><path d="M553.71,379.09c-.12,3-.42,6.08-.31,9.11.13,3.52-.92,5.85-6.75,5.84-7.2,0-9.77,3.18-9.56,8.13.28,6.91.3,13.82.43,20.72-.13,10.32-.15,20.65-.44,31-.08,2.93,1.14,5.24,3.25,7.69,1.25,1.45,1.48,4.12-1.7,5a12.09,12.09,0,0,1-6.54-.15c-2.25-.83-2-3-1.34-4.55,8.43-20.4,1.66-41.25,3.33-61.86.19-2.4-2.71-4.93-4.17-7.41,2.31-5.3,6.7-3.93,11.65-2.15s9.55,1.43,9-3.67c-1-9.33,3.22-19-2.94-28-1.27-1.86-.37-3.27,1.63-4.34a5.66,5.66,0,0,1,5.36,0c1.92,1,3.26,2.44,1.69,4.26C550.76,365.17,554.2,372.26,553.71,379.09Z"/><path d="M516.36,424.45c2.67-8,5-16-2.83-23.38a1.91,1.91,0,0,1,2.78-.1,75.77,75.77,0,0,0-.48-41.09c-.57-2-2.07-3.65.46-5.22a6,6,0,0,1,6.33-.09c2.4,1.5,2,3.28.49,5.26-4,5.18-1.44,10.61-2.2,17.65,9.31-5.74,18.18-9.47,10.84-18.11-1.75-2.07-1.17-3.74,1.48-5a5.72,5.72,0,0,1,5.38.1c2.49,1.44,1.59,3.06,1,5.16-2.14,7.86-6.46,14.48-15.35,19.52-5.41,3.07-3.16,7.69-2.85,11.8,1.08,12.12-3.77,24.47,2.74,36.39.75,1.38-.28,2.79-2,3.61a5.9,5.9,0,0,1-6.24-.43C513,428.38,514.93,426.41,516.36,424.45Z"/><path d="M492.34,355.61c-6.84,15.12-3.07,30.7-3.17,46.05-.05,6.78,10.85,9.44,16,14.47-.08,12.54-.2,25.07-.21,37.6,0,2.18-.7,4.48,1.32,6.46s3,4.09.08,5.92a5.66,5.66,0,0,1-6.26-.06c-2.7-2.08-3-4.41.16-6.55,4-13.82,1.24-27.76,1.23-41.65,0-1.34-2.08-3.08-3.83-4-11.26-5.64-12.84-13.7-12.09-22.83.66-7.82.05-15.7.07-23.56,0-3.13-.14-6.19-3.34-8.64-1.38-2.14-4.19-4.51,1.7-5.43C487,353.64,490.13,353.68,492.34,355.61Z"/><path d="M615.13,426.27c-.54-10.76,3.42-21.73-2.66-32.23-1.12-1.94,0-3.25,1.93-4.3a5.35,5.35,0,0,1,5.32.08c1.9,1.13,3.27,2.71,1.43,4.33-4.77,4.21-2.89,9.14-2.93,13.76-.23,22.45-.2,44.9-.12,67.35,0,2.66-1.52,5.68,2.13,7.86,2.54,2.47,3.56,5.16-.34,7.15a9,9,0,0,1-6.4-.21c-3.12-1.87-2.61-4.51.12-6.53,2.57-1.9,1.82-4.15,1.82-6.27C615.4,460.26,615.25,443.27,615.13,426.27Z"/><path d="M606.05,462c-4.92,6.09-4,12.83-4,19.47,0,14.3.08,28.61-.08,42.91,0,3.18.42,6,3.16,8.65,1.51,1.45.52,3.27-1.71,4.32a5.74,5.74,0,0,1-5.36,0c-1.95-1.08-2.85-2.38-2.15-4.35,7.43-20.91,1.77-42.19,3.09-63.28.16-2.5-2.53-5.09-3.9-7.64a6.4,6.4,0,0,1,2.16-1.95,7.87,7.87,0,0,1,6.53,0A7.71,7.71,0,0,1,606.05,462Z"/><path d="M595.44,414.54c3.86-1.67,4-4.37,4-7.23-.21-8.85-.3-17.69-.44-26.54-.46-7.54,3.13-15.32-2.93-22.54-1.36-1.62.38-3.32,2.54-4,4.12-1.35,6.22.71,8,3a3.17,3.17,0,0,0-.49.76c-6.36,18.92-7.15,37.84,0,56.76l.09,2.94a16.33,16.33,0,0,1-2.45,1.74,8,8,0,0,1-6.48-.05,10.18,10.18,0,0,1-2.27-1.85C595.15,416.49,595.29,415.52,595.44,414.54Z"/><path d="M535.65,474.91c12.8,6.35,18.75,12.86,18.25,23.56-.54,11.68-4.33,23.84,2.93,35.32.88,1.38-.6,2.71-2.18,3.54a5.94,5.94,0,0,1-5.37.07c-2.18-1-3-2.61-2-4.35,7.67-14,2-28.54,3-42.81C550.72,483.81,539.73,481.93,535.65,474.91Z"/><path d="M466,430.69c.3-7.26-8.47-10-13.63-14.51-3.15-2.75-6.7-5.25-10.07-7.86-.76-1.09-.52-2.05.71-2.88,9.87,7.07,17.3,16.15,31.1,20,1.31.37,1.78,2.33,2.64,3.56C473.76,431.65,470.06,431.78,466,430.69Z"/><path d="M472.84,451.39l-4.56.19c1.26-3,1.38-5.95-1.14-8.75-1.75-1.95-2.82-4.22-.11-6,1.7-1.12,4.46-.91,6.43,0,3.27,1.5,3,3.74,1.07,5.75C471.8,445.36,472.94,448.41,472.84,451.39Z"/><path d="M661.58,173.46c-11.38,7-14.52,15.64-9.1,26.46,1.21,2.39,3.54,4.46-.26,6.54a5.7,5.7,0,0,1-5.32.14c-3.77-2-1.69-4.13-.45-6.55,2.17-4.22,1.21-8.72.91-13.13a13.39,13.39,0,0,1-4.89-11.8c1.08-15.4.38-30.81.8-46.21.14-4.82.57-9.93,4.12-14.39-.25-4.19,1.91-7.5,6.3-10.26,3.75-2.37,6.72-5.47,10.68-7.59,12.86-6.9,18.33-15.84,15.75-27.42-1.4-6.33,1.76-9.24,11.24-8.67s19.12.15,28.69.13c9.85,0,19.81.68,29.24-2.26,6.42,8.52-3.18,5.25-7.79,5.65a360.67,360.67,0,0,0-56.74,0l0,0c-1.29,9.34-2.7,18.45,2,27.85,3.54,7,1.08,15,1.26,22.59.12,5.48.28,10.72,8.31,13.68,2.87,1.06,4.46,3.14,3.78,5.66-.79,2.89-3.66,4.13-7.38,4.5a86,86,0,0,1-20.66,0c-7.91-1.13-10.61-5.92-4.75-9.65,10.82-6.87,6.24-15.55,6.76-23.61.21-3.33-3-3.59-6.18-1.68-7.42,4.46-12.26,9.81-12.15,17.28.18,11.79-.06,23.58.11,35.37,0,2.63-1.66,5.88,2.52,7.66,1.73.73,3.61-.57,5-1.55,3.5-2.57,7.6-4.94,6.64-9.23a5.56,5.56,0,0,0-.92-1.53c-6.27-9.93-4.71-11.82,10-12.2,1.92,0,3.86-.14,5.76,0,5.18.39,11.57-.72,14.1,3.86s-4,5.84-6.7,8.64c-5.85,6.17-10.17,13.08-18.54,17.9C670,171.68,666.81,174.11,661.58,173.46Z"/><path d="M574.49,87.51c-2.76-.93-4.55-.21-4.74,1.91-.26,3.06-1,6.33,0,9.17,4.37,11.27-9.1,16.91-14.93,24.68-3,4-7.45.12-8.48-3.65h0c3.41-6,9.75-9.19,18.4-10.13,4.15-6.09,1.68-12.57,1.72-18.84s-9-2-13.18-5.6H602c-9.94,2-19.48,2-16.2,10.56,2,5.09-3.42,11.29,4.27,15.6,10.26,6.18,14.06,14.07,12.07,23.63-.64,3.1.37,6,3,8.7,1.58,1.62,0,3.21-2,4.22a5.46,5.46,0,0,1-5.33-.09c-1.81-1.11-2.71-2.41-1.69-4.37,6.2-11.91,5.32-22.35-9.53-31.28-7.7-4.63-1.95-12.25-3.61-18.37-.63-2.32,3.35-6.9-4.83-6.14A2.58,2.58,0,0,1,574.49,87.51Z"/><path d="M639,123c-.11,12.79-.2,25.59-.37,38.39,0,3,.84,6.18-2.4,8.74-2.88,10.4-3.26,20.8.77,31.06.82,2.09,1.59,3.79-.88,5.24a6.16,6.16,0,0,1-6.35,0c-2.39-1.5-1.18-3.24-.68-5.26,2.68-10.95,6.64-22-1.92-32.67a2.94,2.94,0,0,1,.23-1.62,14.55,14.55,0,0,0,2.81-3c3.78-13.2,4.52-26.38-.62-39.52-.69-1.43-2.37-2.86,0-4.31,4-5.25,2.3-11,1.77-16.4-1.34-13.72,4.8-27.82-3.78-41.21-1.1-1.73,1.7-2.91,3.28-4.06,2.37-1.73,4.16-.44,5.81.73s3.92,2.63,1.68,4.24c-6.2,4.48-3.63,10-3.78,15.16-.32,10.65.24,21.32-.12,32C634.26,115.11,635.27,119.22,639,123Z"/><path d="M611.48,193.66c6.56-11.44,3.22-23.47,3.85-35.25.48-8.92-.52-17.91.36-26.8.72-7.39-1.88-13.3-10.31-17.26-6.84-3.21-6-6.23-1.08-9.8,3.9-1.88,6.82-4.12,7.64-7.78.48-2.11,3.17-3,6.22-2.57,2,.3,3.73,1.28,3.83,2.69.14,2.1-1.37,3.85-4.46,4.13a15.54,15.54,0,0,0-6.88,2.59c-6,3.5-8.61,6.77-.78,10.93,3.29,1.75,5.68,4.41,8.48,6.66q0,31-.08,62c0,1.93-.18,3.9,1.59,5.62s3.09,3.35.71,5.25C617.35,196.64,614.4,195.09,611.48,193.66Z"/><path d="M514.15,48.87,518.69,46c5.35,1.34,9.44,3.09,4,7.45-2.39,1.92-1.72,4.2-1.73,6.37q0,26,.13,52c0,1.89,0,4.26,1.37,5.59,6.62,6.27.07,7.4-6,8.87-4.19-.22-5.77-1.92-5.16-4.86l5.36-4.37c3.69-14.89,1-29.93,1.7-44.9C518.7,64.25,519.9,56.19,514.15,48.87Z"/><path d="M521.41,139.78l0,53.92c-.36,2.46-1,4.92,1.28,7.15,2,2,2.76,4.35-.62,5.67-3.7,1.44-7.44,1.28-8.42-2.68-2.42-2.58-.93-5.41-1-8.15-.4-20.09,2.8-40.25-2.26-60.24.62-2.69,1.74-5.11,5.93-5.86C531.5,129.43,519.62,136.41,521.41,139.78Z"/><path d="M529.92,193.71c5-6,4.62-12.66,4.59-19.32,0-17.62.18-35.24.06-52.86,0-2.9,1.73-6.18-2-8.69-.19-.54-.37-1.08-.51-1.63,2.89-1,5.25-1.25,5.35,1.91l.12,3.09c-.06,22.4.09,44.8-.41,67.2-.09,4,4.61,6.44,3.93,10.22C537.36,195.59,533.66,196.57,529.92,193.71Z"/><path d="M631.92,166.67l-4.51.18q-.18-20.78-.35-41.56c0-1.94,0-3.93,2.5-5.24l1.92,2.89c3.59,2.82,2.64,6.37,2.4,9.61C633,143.92,636.29,155.42,631.92,166.67Z"/><path d="M537.4,113.12l-5.35-1.91c-3.3-2.14-1.75-3.88,1.12-5.15a6,6,0,0,1,6.85,1.13C542.94,110,540.13,111.58,537.4,113.12Z"/><path d="M741,47.22l8.24,0c4.56,3.25,2.47,5.37-2.23,7.05C741.6,53.43,742.53,49.75,741,47.22Z"/><path d="M288.66,161.63c1.82,4,5.59,5.49,11.31,5.34q14.8-.36,29.63-.14c6.79.1,9.79-2,9.58-6.92-.32-7.77-.38-15.54-.56-23.31a4.47,4.47,0,0,1,4.89-.14c-.13,10-2.78,20,1.58,29.87,1.76,4-1.15,6.54-6.51,4.89-9.38-2.89-19.05-1.84-28.32-1.42-12.63.57-22.46-1.19-28.46-9.88-1.08-1.48-1.81-3.19-3.3-4.38-18-14.34-22.62-31.2-20.76-50.24,1.66-17,.21-34.15.14-51.23a2.72,2.72,0,0,1,3.18.14c0,22.71.39,45.42-.13,68.12-.16,7.14,2.18,13,8.05,18.62C276,147.62,282.14,154.72,288.66,161.63Z"/><path d="M290.49,119.52c0-14.42.07-28.84-.05-43.25,0-4.38,1.15-8.88-2.61-13-1.32-1.43-.26-3.27,2-4.29a5.79,5.79,0,0,1,5.33.26c1.61.89,2.88,2.26,1.94,3.61-7.25,10.34-2.27,21.33-3.27,32-.77,8.2-.15,16.46-.15,24.7Z"/><path d="M314.1,144.81c-1.12,2.77-4,3.69-7.59,3.78-8.91-5.71,6.67-11-.12-16.84C311.89,135.46,309.84,141.06,314.1,144.81Z"/><path d="M261.06,54.21l-3.18-.14c-4.83-1.76-4.14-4.56-1.39-6.73,1.64-1.3,5.72-1.39,7.17.38C265.58,50.06,266.61,53.07,261.06,54.21Z"/><path d="M184.4,273.12l179.93.09c1.25,1,1.24,1.9,0,2.84l-180,0C183.06,275.09,183.06,274.1,184.4,273.12Z"/><path d="M82,311.06c-1.38,9,5.74,9.8,14.91,9.28a146.71,146.71,0,0,1,18.4,0c9.88.67,18.15-1,24-7.16.22-.23.51-.56.8-.59,20-1.9,32.7-17.08,54.43-16,4.49.22,9.16.54,13.43-1.42a6.36,6.36,0,0,1,7.15,1c1.37,1.22,1.47,2.52.19,3.81a6.19,6.19,0,0,1-7.07,1.27c-5-2.23-10.5-1-15.71-1.56-9.65-1-17.08,1.29-23.07,6.88-2,1.9-5.51,4.59-7.95,4.39-13.23-1.05-21.09,4.63-29.32,10.69-4.45,3.27-11,1.35-16.63,1.58a193.34,193.34,0,0,1-19.56,0c-9.09-.57-15.45.6-12.72,10.1Q76,324.36,82,311.06Z"/><path d="M368.77,284.45q45.5,0,91,0c2.18,0,4.36-.81,6.53-1.24,2,1.13,5.65,1.63,4.62,4.09-1.1,2.62-4.21,1.21-6.77,1.14-7.2-.2-14.41-.07-21.62-.07l-112.83-.34c-1.43-1-1.4-2.1-.07-3.17Z"/><path d="M364.32,276.05c0-.95,0-1.9,0-2.84,7.17-4.22,14.54-.18,21.8-.26,17.25-.17,34.5-.21,51.75-.3,9.15,0,18.3,0,27.44,0,2.39,0,4.93-.08,4.86,2.27-.06,2.19-2.85,2.65-5,2.58-5.25-.17-10.33-2-15.74-.92-26.77.07-53.61-1.91-80.28,1.35Z"/><path d="M200.2,309.58c-1.15,3.32-4,5.08-7.65,3.58-9.6-4-16-.79-21.81,4.38a22.34,22.34,0,0,1-18,5.77,13.16,13.16,0,0,0-10.23,2.93c-7.79,6.8-19.18,11.29-24,20a5.08,5.08,0,0,1-5.26,2.61c-1.6-.13-3-.76-3-2.11,0-1.62-.63-3.76,1.85-4.48,12.35-3.58,18.6-12.21,28.28-18,2.36-1.41,4.33-3.86,7.53-3.52,12.42,1.31,19.67-4.18,27.38-9.89,5.3-3.91,13.71-2.24,20.37-4.21C197.91,306,199.26,308.27,200.2,309.58Z"/><path d="M44.83,331.85A11.88,11.88,0,0,1,47,331.5c5.09.15,12.07,2.55,14.64-1.23,3.31-4.87,1.69-10.87.69-16.36-.47-2.55-3.83-2.48-6.37-2.32-7.49.46-12-2.53-15.76-6.69,7.39,1.36,14.11,4,22.24,4.13,4.76.09,7.2,4.16,6.18,8.71-.53,2.36,1.37,4.34-.29,7.66-2.57,5.14-1.3,9-4.6,9.2C57.24,335.08,49.91,337.1,44.83,331.85Z"/><path d="M232.93,284.63q30.84,0,61.67.07c3.45,0,6.85,0,9.88-1.49,2.49,2.11,2.53,4.23,0,6.36-11.87-3-24.13-1.07-36.19-1.41-11.79-.34-23.6-.05-35.4,0C231.62,287,231.62,285.79,232.93,284.63Z"/><path d="M60.52,293.4c3,1.78,5.93,3.28,10.19,3.22,19.48-.26,39-.33,58.45-.46l0,.59a3.24,3.24,0,0,1,2.38,1.52c-21.74,3.25-43.67,1.21-65.51,1C62.52,299.27,58.84,297.11,60.52,293.4Z"/><path d="M144.89,286.13l2.7-1.73,57.83.65c1.08.91,1.09,1.82,0,2.73l-58,.09C146.17,287.6,145,287.28,144.89,286.13Z"/><path d="M223.7,313.89c-9.22,12.11-24.78,9.67-39.48,9.21-1.08-.88-1.08-1.75,0-2.63,4.14-.07,8.36-.56,12.4-.13,13.79,1.47,21.91-3.4,26.9-12.15C225.9,310.05,225.4,312,223.7,313.89Z"/><path d="M255.68,300.11c-10.11-2.61-15.87,2.8-22.55,6.53a1.72,1.72,0,0,1-2.81-.15c6.35-6.21,13.64-11.18,25.41-10.18C257.21,297.59,257.22,298.85,255.68,300.11Z"/><path d="M232.93,284.63l0,3.5a8,8,0,0,1-9.78.87,2.94,2.94,0,0,1,0-5.19A8.13,8.13,0,0,1,232.93,284.63Z"/><path d="M329.61,284.88c0,1.06,0,2.11.07,3.17-2.4,1.95-4.85,3.74-8.67,1.62-3-2.45-2.68-4.46.83-6.69C326.35,280.1,327.05,284.25,329.61,284.88Z"/><path d="M304.49,289.57c0-2.12,0-4.24,0-6.36,3.82-.17,9-2.1,9,3.18S308.32,289.76,304.49,289.57Z"/><path d="M205.4,287.78c0-.91,0-1.82,0-2.73,3.05-1.47,6.07-3.71,9.58-.58a2.27,2.27,0,0,1,0,3.74C211.54,291.32,208.47,289.42,205.4,287.78Z"/><path d="M184.4,273.12c0,1,0,2,0,3l-4.5,2.42c-3.94-.57-8-1.6-5.55-5.22C177,269.24,181,271.28,184.4,273.12Z"/><path d="M184.21,320.47c0,.88,0,1.75,0,2.63-3,1.6-5.85,3.91-9.42.69a2.28,2.28,0,0,1-.08-3.74C178.13,316.82,181.17,318.89,184.21,320.47Z"/><path d="M144.89,286.13l2.52,1.74-15.9,10.4-2.38-1.52Z"/><path d="M255.68,300.11c0-1.27,0-2.53,0-3.8,2.44-2,5.08-2.22,7.7-.28,1.88,1.4,1.77,3-.05,4.37C260.77,302.34,258.11,302.13,255.68,300.11Z"/><path d="M94.64,348.42c-.48-1.67-1-3.35-1.43-5,4.12-2.47,8-2.26,8.79,1.78C102.67,348.72,99,349.65,94.64,348.42Z"/><path d="M230.32,306.49l2.81.15c-2.91,2.58-1.71,8-9.43,7.25-.07-1.9-.13-3.8-.19-5.7C225.07,306.1,227.83,306.59,230.32,306.49Z"/><path d="M424.15,171.92c-5.08-3.8-4-8.61-4.09-13.23q-.17-12-.35-23.92c.16-10.84,0-21.69.6-32.52.29-5.72-4.82-8.8-9.92-11.37-7.84-4-6.94-9.33-6.25-14.8.28-2.25,16-6.39,19.52-5.11,5.18,1.88,2.9,4.39.54,6.76-.76,0-1.54,0-2.28-.14-4.48-.68-10-5.1-13.13-1S407,86,413.32,89.23c9.49,4.85,11.33,11.58,11,19.69-.67,17.57.05,35.17-.2,52.76-.06,4.59,1.33,8.2,6.83,10.66,13.72,9.5,24.31,21.48,41.81,27.95,2.34.86,3.44,2.22,3,4-.35,1.43-1.54,2.54-3.65,2.88-2.49.39-4.7-.07-5.88-1.74C456.38,191.48,438.58,182.83,424.15,171.92Z"/><path d="M489.22,119.61q-.15,9.24-.28,18.48a2.84,2.84,0,0,1-3.22-.29c4.49-20-4.34-35.91-27.11-47.67C450,85.7,452.84,78.91,453.4,73c.73-7.47-1.94-10.89-13.16-9.88-9.09.82-18.38.41-27.57.55-1.36.47-2.7,1-4.09,1.41-2.51.73-5.37,1.5-7-.7a3.81,3.81,0,0,1,.15-3.93c1.12-1.76,3.85-1.82,6-1.33,13,3,26.34,1.17,39.53,1.29,3.19-1.14,6.33-2,8.9.74q.29,5.61.58,11.22,4.32,3.41,0,6.82c-1.41,4.26.89,7.38,5.19,10.21,5.34,3.5,10,7.62,15.48,10.93C485.91,105.43,490.78,111.4,489.22,119.61Z"/><path d="M497.79,202.14a8,8,0,0,0,4.15-7.45c.06-29.61.22-59.21.31-88.82,0-1.62.28-3.4-2.15-4.44l.19-.36c-.8-2.45,1.36-3.36,4-3.73,1.88-.27,3.58.15,2.89,2.07-3.19,3.11-2.43,6.61-1.9,10.09,3.33,2.81,3.15,5.62,0,8.43,0,1.68,0,3.37,0,5l0,10.08c4.37,2.88,4.95,6.72,5.12,10.68.79,18.9-.84,37.82,1.05,56.72.19,1.86.2,4-2.9,5C502.83,208,498,209.11,497.79,202.14Z"/><path d="M360.41,182c-6.94-.75-5.24-4.84-5.28-7.87-.2-18.5-.13-37-.15-55.49,6.32,2.75,4.4,7.37,4.52,11.36C360.05,147.37,358.14,164.72,360.41,182Z"/><path d="M355,53.88c.1-2.82,1.39-4.94,5.79-5.19,1.53-.09,3.06-.14,4.59-.16C392.57,48,395.09,50.08,391.7,70c-.14.84.14,1.89-.45,2.47-6.05,6-14.85,2.78-22.35,3-4.86.16-13.18,3.07-13.93-4.57-1.08-1.43.13-2.15,1.61-2.79,2.12-.5,4.26,0,6.38-.09,5.89-1.05,12.44.47,17.77-2.56,6.43-5.52,4.46-10.49-4.92-12-6.21-1-12.15.51-18.12,1.49A5.32,5.32,0,0,1,355,53.88Z"/><path d="M385.68,107.1l5.67,4.21c1.88,10.77-2.18,21.8,2.78,32.45.74,1.59,0,3.36-2.56,4.19-2.9,1-5.29-.06-7.36-1.33-2.39-1.46-.24-2.7.43-4.25,4.68-10.8,4.43-21.69.2-32.56Q383.3,108.13,385.68,107.1Z"/><path d="M385.68,107.1l-.84,2.71c-3.81-2.8-6-6.68-10.94-8.74l-2.85-8.41c-.34-1.33-.35-2.77-1.1-4-1.57-2.53-2.76-5.08,2.14-6,5.32-1,6.57,1.65,6.36,4.91C369.12,96.47,381.2,101,385.68,107.1Z"/><path d="M357.27,69,355,70.92l-4.43-.4c-.16-3.37-.43-6.73-2.45-9.87.8-3.07.5-6.73,6.88-6.77.7.06,1.41.11,2.11.15C362.57,59,362.38,64,357.27,69Z"/><path d="M371.66,33.82h3.59c2.42,2.57,4.89,5.2-.06,7.68-2.26,1.13-4.11.26-5.85-1C364.88,37.27,370.44,36,371.66,33.82Z"/><path d="M507.16,99.41c-3-.93-5,.14-6.87,1.66-4.18-1.78-2.87-4.06-.82-6.19,1.5-1.56,4-1.68,6.07-.78C508.48,95.36,510,97.09,507.16,99.41Z"/><path d="M872.66,185.09c-10,7.2-21.25,13.74-29.83,21.77-9.22,8.63-21.42,10.37-34.49,11.81-1.46-1.72-1.18-3.42.17-5.09.45-.44.94-1.09,1.58-1.15,21.19-1.87,30.91-15.45,45.56-24,5.6-3.25,9.87-7.83,17.81-8.36l.11-.1c2.92-10.25.71-20.61,1.27-30.91.54-9.79-.63-19.62.6-29.41l80.63-57.46,2.54,0c-24,17.75-47.72,35.62-72,53.15-5.92,4.27-8.64,8.53-8.39,14.69.59,14.56,0,29.15.32,43.73C878.69,178.38,877.15,182,872.66,185.09Z"/><path d="M989.44,74.22l2.36,0c-.45,2.62-.7,5.21,4.44,5.21,4.42,0,4.52,2.24,4.67,4.52-.19.59-.37,1.17-.55,1.75-3.39,4.69-13.63,1.54-15.87,7.49-3.25,4.76-3,10.71-9.1,14.47l-1.89,1.68c-.22-5.53.14-11.12-.79-16.59-1.23-7.14,5.24-10.69,12-13C989,78.27,988.9,76.52,989.44,74.22Z"/><path d="M1019.15,13.9l2,2.92c3.91,6.67,3.32,13.39.4,20.13L1018.67,39C1015.86,30.61,1015.08,22.23,1019.15,13.9Z"/><path d="M156.72,260.85l64.84.59c1.09.91,1.08,1.82,0,2.73l-69.44.5c-16.66,1.61-30.2-2.53-39.35-12.72-10.87-12.11-26.71-12.28-43.56-11-1.28-1.2-1.27-2.39.11-3.55,20.69-2.16,37.53,2.44,49.3,15.37C128.3,263.41,142.61,261.73,156.72,260.85Z"/><path d="M62.39,200.52l4.78-.17c4.13,1.87,5,3.87,1,6.5-2.09,1.36-3.67,1.53-5.84.22C58.51,204.79,57.88,202.67,62.39,200.52Z"/><path d="M45.67,212l5.65-.1c3,1.94,3.17,4.43.86,6.38-1.68,1.43-5.44,1.43-7.11.08C42.77,216.55,42.79,214,45.67,212Z"/><path d="M43.84,240.85l-.05-3.32c2.76-2,5.75-2.83,8.74-.41a2.42,2.42,0,0,1,0,3.87C49.73,243.64,46.71,242.67,43.84,240.85Z"/><path d="M69.32,237.4c0,1.18-.07,2.37-.11,3.55-2.47,1.87-5.17,2.39-7.85.37-1.85-1.39-1.8-3.09.09-4.43C64.2,235,66.9,235.5,69.32,237.4Z"/><path d="M830.3,171.82c-1.2,2.5.94,5.48-3.58,9.27,0-8.42.16-15.34-.06-22.26-.12-4.07.7-8.08-2.6-12.09-3.16-3.83,1-5.39,5.91-5.7,2.41,1.18,4.15,3,2.87,4.88C827.17,154.35,830.89,163.18,830.3,171.82Z"/><path d="M942,48.53c-.57-7.83-2.76-15.41-4-23.07-.34-2.06-.61-4.95,4.22-4.66,3.91.24,3.38,2.72,3.26,4.54C944.89,33.08,940.69,40.53,942,48.53Z"/><path d="M832.2,136.39c-8.24.83-12.63-1-7.43-7.1,3.43-4,1.57-8.09,2.37-12.1.61-3.13-1.85-6.72,2.55-9.29C830,117.42,828.76,127,832.2,136.39Z"/><path d="M867.54,104.19c-2.1,3.83-.5,8.4-7.78,8.7-2.57.11-4.7-.55-4.42-2.8C855.93,105.37,860.59,104.56,867.54,104.19Z"/><path d="M733.34,502.15l-4.6,1.45c-1.35-2.35-7.31-4-1.92-7.39,2.26-1.43,4-2.2,6.72-.54C737.25,498,737.63,500.06,733.34,502.15Z"/><path d="M760.84,89.43c-16,6.85-12.49,17.77-10.56,28.13.47,2.51,2.52,4.71-1.17,6.58a5.2,5.2,0,0,1-5.26-.31c-2.78-1.86-1.73-3.84-.46-6a8.68,8.68,0,0,0,1.21-5.68c-2-10.5,2.44-19,14-25.52,1.49-9.57,7.56-17,16.34-24.39,5.87-5,3.26-13.86.55-20.91-.89-2.3-2.1-4.25,1.07-5.91a5.7,5.7,0,0,1,5.34.05c3.12,1.69,2.68,3.83.92,5.91-2.19,2.58-1.9,5.46-1.43,8.15,1.51,8.7-1.55,15.88-11.69,21.06-3.86,2-4.9,4.79-4.44,8.06C765.85,82.65,764.63,86.33,760.84,89.43Z"/><path d="M776.91,182.86l-1.85-2c2.73-2.74,1.72-5.91,1.73-8.91.14-22.84.13-45.69.18-68.53,0-3.85-1.1-8.17,6.73-8.87-2.82,3.62-2.27,7.6-2.27,11.5,0,22.4.08,44.8,0,67.21C781.46,176.77,782.67,180.73,776.91,182.86Z"/><path d="M776.73,23.48l5,0c2.47,1.78,3.36,3.71.56,5.67a5.19,5.19,0,0,1-6.07,0C773.38,27.2,774.33,25.27,776.73,23.48Z"/><path d="M1007.62,228c0,2.28-1.79,3.65-4.66,3.79s-4.88-1.34-5-3.49,1.56-3.75,4.53-3.84S1007,226,1007.62,228Z"/><path d="M133.52,523.55l-2-2.95c-4-6.67-3.36-13.39-.43-20.13l2.76-1.92C137,506.91,137.65,515.25,133.52,523.55Z"/><path d="M27.88,167.07a21.76,21.76,0,0,1,18.22-.27L46,170a24.27,24.27,0,0,1-16.18.4Z"/><path d="M37.09,135c-3.23,2.37-6.43,2.28-9.61-.06l-.16-3.78c3.26-2.66,6.57-2.7,9.92-.09Z"/><path d="M69.11,146.49c-3.16,2.75-6.12,1.82-9-.27-.05-1-.09-2-.13-3,3-2.25,6.09-3,9.34-.22C69.24,144.17,69.18,145.33,69.11,146.49Z"/><path d="M109.31,288.17c-6.13-.07-12.31-.56-18.37-.14-9.27.66-15-2.48-19.17-8.4,11.15,8,24.66,4.94,37.51,4.84,4-1,6.27.75,5.78,3.1C114.67,289.43,111.46,288.81,109.31,288.17Z"/><path d="M109.31,288.17c6.21-1.25,1.39-2.47,0-3.7,2.84-2,5.72-2.49,8.44,0a2.31,2.31,0,0,1,0,3.74C115,290.71,112.07,290.29,109.31,288.17Z"/><path d="M686.45,247.75c4.09,2.21,8.82,1.37,13.29,1.39q71,.3,141.93.47c1.72.85,3.28.87,4.58-.46,20.53-.33,41.18,2.37,61.56-1.54,3.49-.67,6.33.69,6.28,3.42s-2.77,3.72-6.41,3.36c-40.37-4-80.9-.94-121.35-1.41-3.42,3.52-8.55,3.07-13.48,3.09-24.77.13-49.59,1.51-74.21-2-4-.56-8.32-1.36-12.39.19C680.91,252,679.87,249.83,686.45,247.75Z"/><path d="M843.45,241.47c-22.56-1.63-45.17-.46-67.75-.55-25.68-.1-51.36.19-77,.32l-11.47-.19c-1.7-1.53-1.59-3.06,0-4.6,2.07-1.94,5.06-2.48,8.15-2.6,16.68-.63,33.35-.95,50,.4,3.48.28,6.58.83,8.71,3l87.52.49Z"/><path d="M916.29,131.85h51l.06,1.72H916.21C916.24,133,916.26,132.42,916.29,131.85Z"/><path d="M43.74,321.26c-.17-2.17,1.23-3,4.1-2.9,3,.11,5.24,1,5.35,3.34s-1.62,3.69-4.88,3.53S44,323.36,43.74,321.26Z"/><path d="M578.78,72.38h-4.91q.28-21.93.55-43.84a3.2,3.2,0,0,1,3.83,0Q578.52,50.46,578.78,72.38Z"/><path d="M578.25,28.53h-3.83c-8.76-.65-7.4-5.36-7.64-9.71-.23-3.92,1.87-5.61,7.09-5.43h4.93c5.11-.11,7.36,1.5,7.09,5.43C585.59,23.14,586.94,27.85,578.25,28.53Z"/><path d="M80.18,490.56a7.38,7.38,0,0,1-1.72-.46c-2.45-1.67-6.86-.48-9-3.66,9.23-2.75,19.47.86,28.23-2.61l.6.19,10.69,2.61c-8.46,4.49-18.46-.26-25.9,3.68l0,0Z"/><path d="M66.86,43.86,62,44c-3.22-4.43-4.2-8.66,2-12.26l2.27.44.9,6.55C67.11,40.43,67,42.14,66.86,43.86Z"/><path d="M21.64,261.79H75.58v1.69h-54Z"/><path d="M431.12,534c3.64-1.72,6-3.45,12-1.86,7,1.86,16.13,1.5,23.39-.14,5.4-1.21,7.69-.08,10.84,1.94a5.23,5.23,0,0,0-.23,1.52c-5.93,5.77-13.75.14-20.84,1.08-6.93.92-17.11,3.1-25-1.1A3.72,3.72,0,0,0,431.12,534Z"/><path d="M440.18,319.78c9.39-.09,18.9,1.56,28.09-1.13,2,.88,5.47.5,5.45,3.14s-3.5,2.22-5.49,3.11c-7.64-2.32-15.58-1.21-23.44-1.11-29.94.12-59.9-1.43-89.81.58-.37-5.81,5.84-4,9.64-4.08C389.8,320,415,319.92,440.18,319.78Z"/><path d="M433.29,296.41l2.34-1.86c3.38.14,7,.29,7,3.61s-3.62,3.47-7,3.57L433.27,300C433.27,298.8,433.28,297.6,433.29,296.41Z"/><path d="M468.15,306.85c4.36-.81,7.75.1,7.42,3.65-.3,3.27-3.91,3.34-7.48,2.54Z"/><path d="M797.75,325.69c-6.47,0-8.15-2.59-6.8-6.79,11-.28,21.71,2.37,32.77,1.37,6-.55,12.23.87,18-1.56a6,6,0,0,1,7,1.27c1.19,1.3,1.06,2.62-.23,3.86-2,1.92-4.41,1.45-7.2,1.06C826.75,322.85,812.14,321.5,797.75,325.69Z"/><path d="M775.48,330l3.82,1.25c12.48.24,25,.43,37.46.74,4.46.12,9.18-.67,13.19,1.57l-2.29,1.64-48.44.08C776,334.25,774.8,332.49,775.48,330Z"/><path d="M757.68,343.05l5.48.07q12.5.36,25,.7c4.16.11,8.55-.24,10.77,3.27l-35.84.07-3.64-1.88C757.87,345,757.28,344.21,757.68,343.05Z"/><path d="M848.32,373.1c-3.39-1-9.08.15-8.69-4.47.08-1,2.06-2.55,3.44-2.73,4.47-.58,5.81,1.53,5.65,4.41A1.83,1.83,0,0,1,848.32,373.1Z"/><path d="M848.32,373.1c.13-.93.27-1.86.4-2.79l12,9.89-1.61,1.08Z"/><path d="M417.22,237.27c16.36-.08,32.8,1.72,49-1.2,3.34,1.81,7,3.57,1.72,6.59-4.11-2.08-8.82-1.61-13.39-1.63-29.18-.1-58.36-.13-87.54-.29-4.79,0-10.28.9-13.29-3.25Z"/><path d="M474.89,230.75c-13.92-2.09-28-1.68-42.11-1.78-9.91-.07-19.89-.61-29.41,2.19-2.43-2-4-4.13-.84-6.41,2.18-1.59,4.83-1.24,7.18-.14a14.12,14.12,0,0,0,7.52.92l41.16.22c3.49,0,6.89-.14,9.5-2.17C474.92,223.52,477.53,225.76,474.89,230.75Z"/><path d="M395.23,208.88c18.46,7.63,37.86,6.19,57.44,3.24,3.43-.51,6.26.22,6.8,3a3.39,3.39,0,0,1-4.35,3.8c-11.74-3.71-23.84.2-35.57-1.43C409.23,218,400.57,215.93,395.23,208.88Z"/><path d="M343.51,136.46l-4.89.14c-4.15-6.54-3.48-7.18,7.18-6.86C345.19,132,347.33,134.78,343.51,136.46Z"/><path d="M390.12,230.82c-3.62-.16-5.05-1.55-5.27-3.76-.18-1.88.54-3.26,3.63-3.19,2.85.07,5.4.61,5.75,3S392.81,230.46,390.12,230.82Z"/><path d="M244.89,217.7c-.07,2.16.27,4.39-.32,6.47-.7,2.43-2,1.44-2.93-.08V204.78c5,3.3,1.34,7.34,5,9.48C246.07,215.41,245.48,216.55,244.89,217.7Z"/><path d="M337,245.89c3.27,4.24,8.88,3.62,14.18,3.61l114.46-.25c1.3,1.12,1.51,2.25.1,3.41l-7.26.37c-22.68,4.5-45.77,3.53-68.87,2.87-4.5-.13-8.65-.12-11.7-2.94-5.29-.09-10.68-.72-15.84-.17-15.83,1.7-27.92-2.35-37-11.7.12-.85.23-1.7.35-2.54Z"/><path d="M763.07,299.93c-2.48-.91-4.4-2.16-4.67-4.34,15.91,1.72,31.93.59,47.89.89,2.67,0,5.78.1,7.33-1.7,10.19-11.86,26.22-10.3,41.78-9.9,1.29,1,1.3,2.05,0,3.07-5.32,0-10.68.34-16,0-7.89-.55-14.12,1.18-18.86,5.82-5,4.87-11.54,6.49-19.87,6.22C788.18,299.55,775.62,299.9,763.07,299.93Z"/><path d="M774.65,288.3c-2.16.33-4.33.63-6.48,1-4.06.67-9.14,1.87-9.68-2.6s4.62-4,8.83-3.59c13.33,3.15,26.81,2.14,40.21.53,3.1-.37,5.89-1.44,8.2.73a2.55,2.55,0,0,1,0,3.92c-2.26,2.23-5,1.5-8.16.84C796.72,286.86,785.64,288.27,774.65,288.3Z"/><path d="M892.11,296.53v3.32l-41.64-.38c-1.06-.87-1.07-1.73,0-2.59Z"/><path d="M891.83,274.41l2.39,1.52c-5.24,3.18-10.83,6.09-12.67,11.38-.75,2.15-3.31,3-6.34,2.34-1.9-.44-3.25-1.5-3.4-3-.18-1.95,1.38-3.44,3.77-3.61C883.43,282.46,885.86,276.69,891.83,274.41Z"/><path d="M850.49,296.88c0,.86,0,1.72,0,2.59-3.12,1.41-6.14,3.79-10,1-1.84-1.35-1.79-3.07,0-4.44C844.25,293.2,847.34,295.44,850.49,296.88Z"/><path d="M790.38,276.33c-.19-3.72,2.36-5.47,7.34-5.49l2.47,1.83c0,1.25-.07,2.49-.11,3.74C796.8,279.16,793.58,278.46,790.38,276.33Z"/><path d="M774.57,272.9c6.27-3.46,9.1-1.72,9.65,3.42l-2.66,1.89c-2.61-.09-5.22-.17-7-1.89C773.23,275.18,773.23,274,774.57,272.9Z"/><path d="M855.38,288c0-1,0-2.05,0-3.07,2.78-1.69,5.69-3,8.67-.35a2.35,2.35,0,0,1,0,3.8C861,290.91,858.13,289.74,855.38,288Z"/><path d="M702.45,259.58c13.94,2.93,28.14,1,42.23,1.24l103.13.41c3.45,0,6.89,0,9.91-1.52,4.86,2.28,3,4-.9,5.47-32.75-1.6-65.53-.49-98.29-.38-18.77.15-37.61-1.68-56.27,1.16C697.24,263.75,696.71,261.62,702.45,259.58Z"/><path d="M856.82,265.18l.9-5.47c4.5-1.09,8-.07,7.4,3.5S860.79,267.17,856.82,265.18Z"/><path d="M444.69,335.57c-4.55-.09-9.11,0-13.64-.3-14.27-.88-27.89-.35-38.08,8.49,4.16-7.68,10.93-12.32,23.19-11.89,9.53.34,19.11-.12,28.67-.22,8.19,1.62,18.27-2.86,24.8,4.11C461.27,338.88,452.93,340.93,444.69,335.57Z"/><path d="M360.89,367.19l-.55,2c.26,6.06,2.1,12.14-.36,18.17a3.85,3.85,0,0,0-.1,1.65,4.3,4.3,0,0,1-5.15,0c.11-5,.11-10.08.37-15.11C355.25,370.89,354.41,367.29,360.89,367.19Z"/><path d="M372.69,338.12c-3.14-.52-5.39-1.82-5.24-4,.21-2.78,2.8-5,6.57-4.7,2.82.22,6,2.23,5.17,4.72C378.49,336.18,376.05,338,372.69,338.12Z"/><path d="M354.73,389l5.15,0c3.44,1.86,1.82,4.54,2.08,6.91l-.78.57-1.05-.23-5.6.05C351.53,393.8,351.17,391.35,354.73,389Z"/><path d="M340.32,369.64c-1.46-4.4-2.18-8.91,1.41-13.17C342.83,360.87,344.36,365.26,340.32,369.64Z"/><path d="M410.45,378.14c-5.14,13.37-1.36,27-2.32,40.51-7.53-3-3.17-8.55-5-12.77a66.49,66.49,0,0,1,0-23.33C404.27,379.94,406.88,378.62,410.45,378.14Z"/><path d="M420,349l-5.27,4.2L387.85,372c-1.93-4.35,3.61-5.67,6.39-7.83,6.94-5.4,14.43-10.41,21.71-15.57A3.53,3.53,0,0,1,420,349Z"/><path d="M423.27,367.31c6.4-6.27,14.23-11.48,22.12-16.65l2.25,1.5L424.11,369Z"/><path d="M373.74,395.9c-3.66-4.8-2.28-10.06-2.58-15.17,1.93-1.31,4-2.31,6.81-1.55C372.34,384.19,378.93,390.84,373.74,395.9Z"/><path d="M384.94,403.91c-.18-2.1,1.11-3,3.94-2.91s5.1,1,5.23,3.28-1.69,3.54-4.8,3.45S385.08,406,384.94,403.91Z"/><path d="M695.83,375.72c-.22-1.06-.13-2.23-.74-3.15-1.74-2.64-3.49-5.57,1.69-6.72,4.91-1.09,6.4,1.72,6.65,4.81-3.29,2-3.56,4.66-3.56,7.57,0,17-.2,34.06-.37,51.09,0,2.85.41,5.5,2.82,7.92,1.5,1.51.95,3.21-.89,4.53a5.15,5.15,0,0,1-5.18.63c-2.32-.95-2.91-2.48-2.45-4.26C699.15,417.41,695.15,396.52,695.83,375.72Z"/><path d="M679.61,384.15c1.78-10.56.8-20-16.42-23.61-2.78-.58-3.29-2.87-3.49-4.87,5.24-3,8.2-2.92,11.82,2.16,5,7,14.38,12.51,12.89,21.61-1.75,8.76,1.21,17.86-4.8,26.41Z"/><path d="M652.44,365.53c5.76,5.06-2.87,8.88-2.18,13.91,1.2,8.74-.08,17.67-.31,26.52l-10.89,6.88-2.84-.13c5.62-13.46,8.42-27,3.93-41-1.18-3.69,1.33-6.58,7.52-6.42Z"/><path d="M668,413.53c.15,9.44-3.34,17.67,2.47,25.61,1.6,2.19-1.36,4.27-5,4.34-3.16.07-6-2.12-4.8-3.67,5.72-7.6,1.23-15.91,3.91-23.63C664.81,415.5,666,415,668,413.53Z"/><path d="M764.76,369c.1,15.11.48,30.23.18,45.34-.14,6.86-1.13,13.48,12.16,14.75l-20.9.79-7.39-1c12.88-.85,12.23-7.15,12-13.87-.38-12.9-.31-25.82.14-38.72.17-4.93-2.05-8.42-6.81-11.78-12.7-9-25-18.24-37.44-27.39a2.52,2.52,0,0,1,3.3-.24Z"/><path d="M686.13,318.63c12.16,3,24.71,1.06,37.07,1.48,6.82.23,11.86,1.47,13.46,6.8-17.08-5.77-34.52-4.29-52-1.36l.14-.82c-2.58-2-2.69-4-.21-6Z"/><path d="M775,366.22c3.36-.76,6.91-1.53,8.58,1.69.58,1.12.57,3.24-.38,3.79-3.14,1.83-6.28.82-9-1C774.44,369.18,774.7,367.7,775,366.22Z"/><path d="M684.44,337.11c-3.16-.08-6.6-.16-6.82-3.21-.24-3.59,3.51-3.78,7.14-3.84,2.6,1.88,2,4.55,3.09,6.79Z"/><path d="M720,336.89l-3.3.24c-3.65.06-7-.33-6.87-3.76,0-1.83,1.71-3.16,4.22-3.13C720.26,330.33,718.74,334.33,720,336.89Z"/><path d="M784.45,400.68c-3.57,5.19-4.48,9.28-1,13.54,1.42,1.76,1,3.83-1.9,5a5.71,5.71,0,0,1-5.28-.35c-2-1.22-2.67-3.06-1.19-4.46C779.17,410.53,774.35,404,784.45,400.68Z"/><path d="M793.53,379.65c4.9,4.87,5.51,9.68,0,16Z"/><path d="M412.59,260.82l20.73.22c1.56,1.43,1.65,2.88.16,4.37-2.62,1.27-4.75-.62-7.18-.6l-115.22-.64c-1.15-.92-1.16-1.83,0-2.74Z"/><path d="M546.06,193.71c8-11.36,4.05-23.59,4.28-35.4.16-8.15,3.74-16.77-3-24.61-1.06-1.23.37-2.7,2-3.55a5.82,5.82,0,0,1,5.37,0c1.67.85,2.83,2.28,2,3.62-7.3,12.43-1.76,25.36-3,38,.18,6.15-2.64,12.53,2.3,18.33,1.53,1.8.87,3.37-1,4.3C552,195.94,548.75,196,546.06,193.71Z"/><path d="M516.31,401l-2.78.1c-8.88-3.95-12.85-9.47-11.7-17.26.67-4.55,1.06-9.32-3.23-13.52-1.56-1.52-1.17-3.74,1.6-5.05,5.72.34,9,1,6.63,6.66C502.31,382.62,502,393.25,516.31,401Z"/><path d="M569.71,170.34c1.07,10.7-3.42,21.67,3,32.12,1.13,1.86-.06,3.42-2.17,4.23-4.2,1.62-6.2-.75-8.2-2.84.84-1.25,1.67-2.5,2.51-3.74,2.77-10.35,0-20.84,1.5-31.23C569.06,167.35,569.74,168.4,569.71,170.34Z"/><path d="M433.48,265.41c-.05-1.46-.1-2.91-.16-4.37,2.62-2.13,5.78-2.14,9.18-1.27C444,265.52,440.88,267.29,433.48,265.41Z"/><path d="M465.7,252.66c0-1.13-.07-2.27-.1-3.41l2.31-1.93c4.33.15,9,.64,6.78,4.92C472.75,255.92,468.89,254.23,465.7,252.66Z"/><path d="M468.23,324.9c4.65-2.06,4.64-4.15,0-6.25,4.37-.93,7.72-.11,7.42,3.53C475.42,325.45,471.8,325.54,468.23,324.9Z"/><path d="M433.16,379c2.61-1.67,5.71-2,9-1.76a2,2,0,0,1,2.68.07c-5.68,9.19-6.26,18.56-1.85,28.1-.23,1-.47,1.92-.71,2.88-6.85-.24-10.7-1.17-7.17-7.54C439.07,393.65,435.93,386.19,433.16,379Z"/><path d="M444.86,377.34l-2.68-.07c7.09-7.78,19.71-12,24.62-21.45,2-3.86,6.72-2.65,8.67,1.36Z"/><path d="M597.25,461.62l0-43.85,6.69,0q-.09,21.92-.19,43.83Z"/><path d="M750.88,230.65c-22-2.3-44-2.17-66.13-.73-5.39-2.72-2-4.17,1.52-5.6,18,2.67,36.45,2.41,54.22.47,8.81-.95,16,2,24.26,1.26,11.64-1,23.54-.39,35.33-.47-3.61,3.85-9.15,3.15-14.43,3.46C774.07,229.71,762.22,227.26,750.88,230.65Z"/><path d="M567.32,168.58l-.06-1.74c7.86.23,6.74-4,6.77-7.47q.27-35.94.46-71.86h3.71q.24,35.88.51,71.76c0,3.48-1.21,7.71,6.65,7.6,0,.57,0,1.14,0,1.71-.8.55-.85,1.65-2.33,1.71l-13.34.05Z"/><path d="M749.34,289c-21.06-1.32-42.11-2.22-63.1.61-3.31.37-6.88,1.36-9-1.66-.92-1.33-.65-2.71.79-3.82,2.6-2,5.42-1.21,8.3-.31,4.73,1.47,9.65.94,14.54.61,12.65.13,25.3.15,38,.43C743.08,285,748.71,283.8,749.34,289Z"/><path d="M691.75,194.5l50.62-36.11a3.24,3.24,0,0,1,3.56,0c-16,11.85-32,23.75-48.19,35.53-5.36,3.91-10.72,7.74-13.09,13.2-3.14.21-6.29.12-7-2.69-.67-2.63,1.37-3.91,4.9-4.4C686.9,199.46,689.32,196.93,691.75,194.5Z"/><path d="M748.88,313.18c-11.7-3.36-23.85-1.05-35.77-1.42-8.64-.28-17.33.3-26,.5-1.86-.2-4-.17-4.65-1.83-.87-2.32,2.22-2.54,3.81-3.54,17.32,2.82,34.92.68,52.34,1.57C742.9,308.68,749.62,306.82,748.88,313.18Z"/><path d="M748.24,203.79c-9.33,9.42-20.5,16-37.84,13.46-4.36-.65-8.09.81-11.73,2.31-6-.9-6.38-3.72-4.7-7.27,4-1.22,7.35.93,10.94,1.13,12.69.71,26.25,3.22,35.39-6.64C742.08,204.86,745.07,204.05,748.24,203.79Z"/><path d="M599,168.42c.48-3.62.88-7.16-2.48-10.39-1.58-1.52-.56-3.27,1.48-4.37a5.51,5.51,0,0,1,5.34.05c1.93,1.11,2.61,2.47,1.71,4.38-5.65,11.92-4,23.78.86,35.59-2.91,1.29-5.8,2.91-9,.28-2.34-2-.14-3.4.74-5.18C601,182.14,599.18,175.24,599,168.42Z"/><path d="M703.23,295.85c12.19.27,24.39.47,36.58.83,4.34.14,9.92-.63,9.28,4.81-15.14-3.38-30.53-1.21-45.83-1.14-1.84-.13-4.06-.24-4.39-1.81C698.4,296.28,701.14,296.22,703.23,295.85Z"/><path d="M583.05,170.29l2.33-1.71c2.18,11.26-3.1,22.94,3.52,34,1.09,1.82-.21,3.38-2.39,4.18a7.33,7.33,0,0,1-4.3,0c-2.2-.8-3.41-2.37-2.27-4.18C586.54,192.06,581.88,181,583.05,170.29Z"/><path d="M675.24,183.6c-4.15,2.72-7.15,5.73-4.75,10.1-3.17,1.65-6.78,3.31-9.56.12-3.81-4.38,3.63-5,5.45-7.55l5.68-2.88A3,3,0,0,1,675.24,183.6Z"/><path d="M710.19,271.57c3.31-.58,6.53-.79,9.16,1.27,1.3,1.17,1.3,2.33,0,3.48L717,278.18C710.4,278.38,708.87,275.76,710.19,271.57Z"/><path d="M684.76,235.61l2.3,1.89c.05,1.18.1,2.37.14,3.55-3.64,1.28-8,3.33-9.52-1.28C676.47,236,680.82,235.6,684.76,235.61Z"/><path d="M684.56,318.69l.21,6c-3.74,1.16-7.1.62-7.52-2.46C676.74,318.58,680.19,317.8,684.56,318.69Z"/><path d="M274.22,264.64c-9.45.15-19-1.74-28.28,1.33-2.61.87-5.47.56-6.81-1.64a3.19,3.19,0,0,1,0-3.07c1.34-2.2,4.18-2.51,6.81-1.65,9.24,3.06,18.83,1.26,28.28,1.37C275.57,262.2,275.58,263.42,274.22,264.64Z"/><path d="M274.22,264.64c0-1.22,0-2.44,0-3.66,12.37-2.9,24.69-3.67,36.89.45,0,.91,0,1.83,0,2.74C298.89,268.26,286.58,267.41,274.22,264.64Z"/><path d="M221.56,264.17v-2.73c3.08-1.71,5.85-4.75,9.93-.79,1.63,1.58,1.68,2.64,0,4.25C227.47,268.84,224.67,265.87,221.56,264.17Z"/><path d="M485.72,137.8l3.22.29c5.62,5.6.21,11.25.12,16.87.46,11.91-3.09,24,2.39,35.69.82,1.75.12,3.36-2.18,4.31a6.07,6.07,0,0,1-5.39-.3c-2-1.2-2.07-2.72-1.27-4.53,5.84-13.35,4.05-26.86,1.18-40.35A24.67,24.67,0,0,1,484,138.1Z"/><path d="M405.67,182.4c-6.94-2.75-9.8-9.25-18.32-10.57-3.05-.47-2.76-2.42-2.42-4,.39-1.76,2-3,4.65-3s4.46.83,4.88,2.74c1.08,4.92,6.61,7.14,11.06,10l30.55,22.73a2.61,2.61,0,0,1-3.21.26C422.78,195.34,416.17,187.31,405.67,182.4Z"/><path d="M432.86,200.6l3.21-.26c3.88-.19,7.13.34,6.66,3.92-.25,1.9-2.15,3-4.78,2.81C432.4,206.63,433.72,203.12,432.86,200.6Z"/><path d="M731,109.7c-13.21-.27-16.08,5-14.95,13.61.95,7.22-1,14.69.39,21.83,2.4,12-7.56,17.53-19.29,23.53,0-1.23-.25-2,0-2.11,14.63-6.74,16.82-16.89,15.3-28.38-.76-5.84-.43-11.78-.06-17.65s.63-10.81-10.67-10.08c-5.29.35-5.66-2.89-5.64-5.87,0-8.69,0-17.38.09-26.07,0-2.91.17-6,5.66-5.92,9.86.19,19.85-1.46,29.56,1,.72,1.41-.17,2.36-1.68,3.12-3,.81-6,.19-9,0-8-.46-15.3,1.36-17.39,7-2.16,5.84-4.63,12.75,5,17.18,6.73,2.35,14.48,2.5,21,5.28C730.78,107.17,731.79,108.21,731,109.7Z"/><path d="M716.46,200.26c8.87-6.41,17.65-12.89,26.62-19.21,7.29-5.15,14.74-10.16,18.06-17.48,2.45-1.09,3.09.74,4.43,1.47,2.53,1.81,3.57,4.55.47,5.67-19.16,6.93-29.55,21-46.17,29.88A2.83,2.83,0,0,1,716.46,200.26Z"/><path d="M728.91,75.75l2.53-2.13c2.15,12,2.95,24.07-.42,36.08l-2.68-2C722.08,98,725.56,87.87,726,77.86A5.67,5.67,0,0,1,728.91,75.75Z"/><path d="M765.57,165l-4.43-1.47-.28-28.85a3.19,3.19,0,0,1,2.68-2C767.08,143.41,764,154.3,765.57,165Z"/><path d="M745.93,158.42l-3.56,0c3.8-7.89,3.52-15.8.21-23.72,2.9-3.5,5.79-3.79,8.69,0-4,4.58-1.65,9.68-2.26,14.54C748.61,152.39,750.33,156,745.93,158.42Z"/><path d="M675.24,183.6l-3.18-.21c6.44-4.88,12.74-9.89,22.22-12.22Z"/><path d="M751.27,134.67h-8.69c-1.12-3.93,1.33-6.54,6.27-4.65s10.37.38,14.69,2.72l-2.68,2A11.78,11.78,0,0,0,751.27,134.67Z"/><path d="M716.46,200.26l3.41.33c-.85,2.73.21,6.46-5.91,6.54-2.58,0-4.08-1.29-4.18-3.12C709.58,200.57,712.76,200.11,716.46,200.26Z"/><path d="M881.38,38c-.16,2.24-1.68,3.73-4.82,3.76-2.53,0-4.31-1.25-4.55-3.05-.31-2.34,1.69-3.62,4.77-3.67C879.33,35,881,36.07,881.38,38Z"/><path d="M719.31,276.32c0-1.16,0-2.32,0-3.48l55.22.06,0,3.42Z"/><path d="M420,349l-4.06-.38c1.54-4.23,2.14-9.57,11.09-5C427.36,347.3,425.2,349.21,420,349Z"/><path d="M454.13,342.08c2.92,0,4.6,1,4.82,2.86.31,2.68-1.67,4-5.4,4-2.8,0-4.07-1-3.92-3C449.8,343.67,451.32,342.36,454.13,342.08Z"/><path d="M767.62,217.26c-2.76,1.9-5.67,2.78-8.49.17a2.4,2.4,0,0,1,0-3.79c2.88-2.54,5.8-1.57,8.54.29C769.05,215.06,769.05,216.17,767.62,217.26Z"/><path d="M767.62,217.26l.09-3.33h14.63C777.79,218.57,772.14,216.51,767.62,217.26Z"/><path d="M701,107.72c-4.83-9.69-1.89-19.65-1.83-29.51,0-2.53,3-3.88,6.35-3.87,7.85,0,15.91-1.54,23.44,1.41l-.61.13a13.31,13.31,0,0,1-2.77,3.18c-13.43,2.55-18.91,8.82-17,18.86.52,2.74-.73,5.47-3.23,7.74A23.33,23.33,0,0,1,701,107.72Z"/><path d="M73.55,436.26l-2.8-.12c-1.58-5.08-6.17-10.3,1.4-14.92,4.36-3,10-1.14,14.91-2.11,3.83,4.14,8.33,8.32,4.12,13.6S79.85,436.17,73.55,436.26Z"/><path d="M163.7,137.4a22.8,22.8,0,0,0,10.36,7.42c4.14,7.68,3.25,9.32-6,9.27-23.15-.12-18.8,2.29-19.32-13.68a7.87,7.87,0,0,1,.71-4.08C154.51,134.36,159.41,133.73,163.7,137.4Z"/><path d="M663.81,345.31l-25.21.25c-46.34-.13-92.69-.46-139-.19-9.75.05-12.08-2.09-12-8.94.4-36.95.5-73.9-.17-110.85-.15-8.27,3.19-11.2,14.07-9.86a33.48,33.48,0,0,0,5.71-.27c47.85.08,95.71.47,143.55,0,11.74-.1,14.55,2.32,14.4,10.71-.66,36.65-.25,73.31-.31,110A83.2,83.2,0,0,1,663.81,345.31Z"/><path d="M977.88,89.68a121.27,121.27,0,0,1,24.69-.14c0,1.68.11,3.36.11,5,0,11.61-4.64,14.14-20.34,11.65-4.24-.67-4.47-2.43-4.45-4.78C977.91,97.53,977.89,93.6,977.88,89.68Z"/><path d="M677.37,487c2.58,7.57-2.68,8.7-11.74,8.91-10.1.23-11.89-2.67-12-9.29-.15-6.91,3.28-8.38,12-8.3S680.19,479.2,677.37,487Z"/><path d="M169.63,485.11h-2.29c-17.53,0-21.09-3.47-17.46-16.16.9-3.15,3.42-3.25,6.48-3.29,5.72-.09,11.45-.08,17.17-.07,17.55,0,21.36,3.73,17.54,16.34-.95,3.13-3.41,3.18-6.56,3.18Z"/><path d="M1067.15,412.53l-39,.41c-3-3.93-.82-8.2-1.46-12.28-.56-3.64,1.86-5.05,6.72-4.85,3.82.16,7.66,0,11.49,0C1067.68,395.85,1067.68,395.85,1067.15,412.53Z"/><path d="M384.73,70.58H362.21c-.1-3.35.07-6.72-.36-10.06-.63-4.84,1.34-7,8.73-7C385,53.5,385,53.17,385,63.87,385,66.1,384.82,68.34,384.73,70.58Z"/><path d="M726,77.64c.07,4.15.21,8.31.22,12.46,0,16.29,0,16.29-22.92,15.91-.16-4.16-.44-8.31-.45-12.46C702.81,76.62,702.84,76.62,726,77.64Z"/></g></g></svg>